<svg width="40" height="40" viewBox="0 0 40 40" fill="none" xmlns="http://www.w3.org/2000/svg">
<path fill-rule="evenodd" clip-rule="evenodd" d="M23.9326 9.82869C24.9458 8.18228 27.7192 4.85161 30.708 4.69963C31.5945 3.81313 33.4181 2.05281 33.6207 2.10348C33.8107 1.8924 34.178 1.86285 34.1273 3.43321C34.0767 5.00358 34.3172 5.64945 34.444 5.77609C35.0983 6.19822 36.4702 7.15649 36.7234 7.61239C37.1245 7.88679 37.9139 8.71419 37.8632 9.82869C37.8422 10.103 37.7493 10.7151 37.5466 10.9685C37.5044 11.2217 37.5086 11.8676 37.8632 12.4248C38.2178 12.982 37.8 13.3745 37.5466 13.5013L36.1535 14.5143C35.9003 14.7043 35.1405 14.9703 34.1273 14.5143C33.1142 14.0585 32.7765 14.4933 32.7343 14.7677C32.8609 15.5697 33.0762 17.3638 32.9242 18.1237C32.9453 18.377 32.7596 19.5168 31.8478 22.0496C30.936 24.5824 30.2859 26.7354 30.0747 27.4952C30.0554 27.5821 30.0344 27.6752 30.012 27.7743C29.643 29.4071 28.9127 32.6381 29.6768 35.7902C29.6558 35.9168 30.1001 36.6134 30.4547 36.6134C30.8558 36.6345 31.7211 36.8161 31.9744 37.3733C32.2276 37.9305 31.7844 38.2386 31.5311 38.323L31.0878 38.5131H27.7952H26.8593C26.9064 38.4612 26.9476 38.4075 26.9829 38.3518C27.1798 38.0417 27.1681 37.7177 27.0532 37.4418C26.9433 37.178 26.7403 36.9561 26.5374 36.7942C26.3356 36.6329 26.1028 36.5066 25.903 36.4566L25.8824 36.4515L25.8612 36.4495C25.7536 36.4387 25.6337 36.4242 25.5066 36.4089C25.2295 36.3756 24.9185 36.338 24.6252 36.3256C24.631 36.3196 24.6366 36.3138 24.642 36.3082C25.2647 35.6769 25.427 34.7386 25.425 33.9117C25.4231 33.0738 25.2525 32.28 25.139 31.8639C24.2145 28.4742 20.9645 27.4641 19.3564 27.2067C19.197 27.1813 19.0472 27.2898 19.0217 27.449C18.9962 27.6084 19.1047 27.7582 19.264 27.7836C20.8218 28.0329 23.7473 28.981 24.5754 32.0175C24.681 32.4047 24.839 33.1445 24.8408 33.9131C24.8427 34.6928 24.6838 35.4341 24.226 35.8981C24.1853 35.9395 24.1302 35.9986 24.0782 36.0657C24.0294 36.1287 23.969 36.2168 23.9339 36.315C23.9009 36.4074 23.8643 36.5932 24.0039 36.7492C24.1242 36.8835 24.3027 36.9056 24.434 36.9056C24.742 36.9056 25.0727 36.9453 25.3984 36.9846C25.5266 37.0001 25.6541 37.0154 25.7791 37.0283C25.876 37.0568 26.0248 37.1324 26.1729 37.2507C26.3295 37.3756 26.4545 37.5238 26.5139 37.6665C26.5684 37.7972 26.5675 37.916 26.4897 38.0385C26.4042 38.173 26.2042 38.3463 25.7781 38.5131H25.5157H9.68536C6.646 38.5131 4.80574 37.7873 3.41655 35.7902C2.40346 34.3339 1.83348 31.6111 4.04981 28.3183C5.75588 25.279 4.93608 22.8719 4.04981 22.0496C1.9636 20.1138 1.58003 19.0735 2.40346 18.1237C4.04981 16.2246 9.68536 22.0496 7.84897 26.862C7.64416 27.3986 7.43801 27.9155 7.24029 28.4112C6.50486 30.2548 5.8859 31.8065 5.8859 33.0041C5.8859 34.5238 7.59578 35.4103 9.68536 35.4103C9.91758 34.5872 10.5085 31.725 11.0152 26.862C11.5217 21.9989 13.759 18.6302 14.8144 17.5538C15.722 16.5407 17.3237 15.2975 18.78 14.7677C19.1783 14.6229 19.5867 14.4972 19.9709 14.3789C20.8861 14.0975 21.6647 13.858 21.843 13.5013L23.9326 9.82869Z" fill="#575758"/>
</svg>
