<svg width="40" height="40" viewBox="0 0 40 40" fill="none" xmlns="http://www.w3.org/2000/svg">
<g clip-path="url(#clip0_1130_20935)">
<path fill-rule="evenodd" clip-rule="evenodd" d="M31.5631 3.64994C30.3269 2.41538 28.9877 2.06864 28.4725 2.04959C27.4232 1.89718 24.9248 2.00954 23.59 3.64994C22.8494 4.56014 22.8817 5.20848 22.9083 5.74256C22.9148 5.87272 22.921 5.99608 22.9155 6.11481C22.9451 6.11929 22.9746 6.12849 23.0027 6.14273L22.8761 6.39207C23.0027 6.14275 23.0027 6.14273 23.0027 6.14273L23.0043 6.14355L23.0062 6.14452L23.0108 6.14695C23.0143 6.14881 23.0186 6.15111 23.0235 6.15391C23.0335 6.1595 23.0464 6.16703 23.0618 6.17675C23.093 6.1962 23.1349 6.22442 23.186 6.26341C23.2884 6.34144 23.4271 6.46225 23.5893 6.64178C23.9138 7.00102 24.3305 7.59293 24.7391 8.54334C25.1161 9.42032 25.6407 9.95355 26.131 10.2015C26.6232 10.4506 27.0571 10.4074 27.3321 10.192C28.017 9.65547 28.5117 8.63341 28.0184 7.39494L27.9978 7.35105C27.7956 6.92124 27.4749 6.23933 27.3195 5.53828C27.1598 4.81785 27.1539 3.98062 27.7481 3.38829C27.8609 3.27581 28.0437 3.27581 28.1565 3.38829C28.2693 3.50075 28.2693 3.6831 28.1565 3.79558C27.7788 4.17217 27.7361 4.74796 27.8837 5.41395C28.0249 6.05106 28.3217 6.68268 28.5266 7.11881L28.5452 7.15838L28.5487 7.16585L28.5518 7.17351C29.1579 8.6843 28.5488 9.97141 27.689 10.6449C27.191 11.0351 26.5038 11.036 25.8696 10.7152C25.2335 10.3935 24.6262 9.74302 24.208 8.77024C23.8214 7.87088 23.4373 7.33422 23.16 7.0273C23.0233 6.87591 22.9119 6.77985 22.8382 6.72334C22.7315 7.78148 22.5767 9.65245 22.5203 10.68C22.5203 13.8349 21.4329 15.881 20.5171 16.9099L16.1101 22.1681C12.9188 25.8252 12.5019 30.8834 12.2789 33.5878C12.258 33.8421 12.2388 34.0754 12.2191 34.2849C11.7155 35.5195 9.30104 34.3264 8.84233 33.9419C6.4196 31.9114 5.5121 28.6289 4.85909 26.267C4.64824 25.5043 4.46391 24.8375 4.26367 24.34C4.30361 24.7533 4.29517 25.2911 4.28532 25.9193C4.24341 28.5915 4.17583 32.8997 7.69768 36.2282C8.97527 37.4357 11.3606 38 12.8487 38H26.5018C26.5512 37.9604 26.614 37.9368 26.6823 37.9368C27.1295 37.9368 27.3733 37.8491 27.4931 37.7587C27.5945 37.682 27.6276 37.5897 27.6122 37.4682C27.5947 37.3305 27.5105 37.1544 27.3533 36.9776C27.1988 36.8038 26.9899 36.648 26.7573 36.546C26.2998 36.3457 26.2988 36.3451 26.2325 36.3153C26.1668 36.2857 26.037 36.2269 25.3342 35.9157C25.2244 35.8672 25.0917 35.8171 24.9495 35.765C24.9221 35.7549 24.8942 35.7448 24.8661 35.7346C24.7528 35.6933 24.6366 35.6508 24.5339 35.6099C24.4114 35.5612 24.2791 35.5036 24.1852 35.4387C24.144 35.4102 24.0666 35.3516 24.0237 35.2565C23.9987 35.2012 23.9837 35.1294 24.0003 35.05C24.0164 34.9724 24.0571 34.9148 24.0959 34.8761C24.6009 34.3739 24.9272 33.6276 25.0972 32.8896C25.2685 32.1463 25.2683 31.4692 25.173 31.1269C24.3169 28.0486 21.2917 27.0864 19.6798 26.8335C19.5222 26.8088 19.4146 26.6613 19.4395 26.5042C19.4642 26.3471 19.6121 26.2398 19.7696 26.2644C21.4266 26.5245 24.7764 27.5449 25.7298 30.9729C25.8608 31.444 25.8426 32.2273 25.6603 33.0185C25.4984 33.7212 25.1971 34.4749 24.7094 35.0594C24.7216 35.0644 24.7346 35.0696 24.7481 35.0749C24.8422 35.1125 24.9478 35.151 25.0603 35.192L25.0636 35.1933C25.0917 35.2035 25.1201 35.2139 25.1489 35.2244C25.2907 35.2764 25.4397 35.3323 25.5687 35.3893C26.2879 35.7078 26.4115 35.7637 26.4726 35.7913C26.4797 35.7946 26.486 35.7974 26.4924 35.8003C26.5384 35.821 26.5848 35.8413 26.9683 36.0093L26.9896 36.0187C27.3002 36.1548 27.5769 36.3607 27.7858 36.5957C27.9919 36.8277 28.1486 37.1075 28.1853 37.3959C28.2123 37.6076 28.1723 37.8191 28.0505 38H33.6236C34.4249 38 34.8481 37.0666 33.6236 36.3997C33.2608 36.202 32.9105 36.0233 32.5922 35.8609C31.8059 35.4597 31.2139 35.1577 31.1052 34.9136V24.34L31.5631 22.6824C31.9638 21.1393 32.1459 19.3074 31.1052 16.3384C30.3041 14.0521 30.3041 12.7947 30.3041 12.1088C30.3041 10.68 30.5759 9.76549 30.8763 9.36545C31.4773 8.56525 32.2842 8.16516 33.5664 7.93654C34.8483 7.70793 35.5123 5.85992 35.6839 4.9645C35.9128 4.00429 35.3596 3.68804 35.0545 3.64994C34.0624 3.74519 32.0553 3.9357 31.9638 3.9357C31.8722 3.9357 31.6586 3.74519 31.5631 3.64994Z" fill="#575758"/>
</g>
<defs>
<clipPath id="clip0_1130_20935">
<rect width="36" height="36" fill="white" transform="translate(2 2)"/>
</clipPath>
</defs>
</svg>
