<svg width="580" height="434" viewBox="0 0 580 434" fill="none" xmlns="http://www.w3.org/2000/svg">
<path fill-rule="evenodd" clip-rule="evenodd" d="M500.157 387.193C503.061 388.684 505.776 388.683 508.632 389.843C511.467 390.995 512.206 395.769 514.63 396.34C503.392 397.519 492.323 400.018 480.949 398.776C481.934 394.771 480.165 390.673 482.534 386.916C488.869 380.937 492.987 383.512 500.157 387.193ZM452.701 111.982C452.847 114.797 453.056 115.916 455.059 117.732C456.629 119.155 457.512 117.034 457.661 119.813C457.747 121.416 456.077 122.221 455.431 123.517C452.209 129.973 454.433 138.311 456.016 144.742C459.226 157.781 467.067 171.959 461.542 185.213C460.985 186.55 460.538 189.447 459.462 190.47C458.043 189.722 457.007 190.049 456.353 191.451C455.961 191.891 455.569 192.33 455.177 192.769C452.694 195.06 450.051 195.912 446.756 194.694C440.11 192.24 439.012 184.54 438.977 178.478C438.938 171.797 440.364 164.799 441.889 158.291C442.624 155.157 443.754 151.518 441.649 148.562C439.661 145.769 437.205 147.343 435.248 146.097C433.164 144.77 436.165 135.018 434.112 132.432C430.527 127.917 429.278 138.962 429.221 141.218C429.159 143.689 429.293 146.573 430.461 148.813C431.378 150.572 434.363 152.117 434.875 153.893C435.354 155.554 433.253 159.867 432.928 161.648C432.429 164.394 432.255 167.198 432.112 169.981C431.627 179.381 433.106 189.274 439.591 196.568C442.434 199.767 447.254 203.399 451.763 202.817C455.742 202.303 459.742 200.159 463.453 198.702C465.949 208.269 469.699 217.534 473.694 226.569C477.166 234.423 480.43 242.467 484.078 250.225C491.765 266.576 504.243 280.505 513.992 295.624C523.405 310.22 528.683 326.97 529.949 344.201C530.248 348.276 529.056 353.852 530.007 357.662C530.899 361.234 531.682 362.785 531.098 366.68C530.449 371.009 529.191 375.001 529.732 379.405C530.211 383.313 532.077 389.135 530.038 392.755C527.587 390.15 525.142 388.924 523.655 385.449C522.146 381.923 522.74 379.025 519.319 377.475C516.396 376.151 514.3 376.439 511.721 374.272C508.588 371.639 506.454 368.422 504.91 364.652C502.276 358.22 501.895 351.248 504.122 344.642C505.908 339.346 511.124 329.432 518.436 332.981C517.35 330.755 516.627 328.335 514.555 326.889C512.75 325.629 510.052 325.219 508.037 323.786C505.784 322.185 503.233 320.477 500.718 319.306C499.742 318.851 498.818 318.623 497.809 318.312C496.599 317.94 494.305 318.207 494.155 318.185C489.836 317.533 485.019 315.458 482.381 312.332C480.396 309.979 478.641 307.783 477.126 305.09C475.158 301.595 474.401 301.807 470.626 300.977C465.139 299.771 461.658 298.949 457.27 294.888C452.403 290.384 448.841 284.772 445.279 279.245C443.193 276.007 441.359 275.81 437.958 274.517C435.981 273.766 433.243 270.401 431.443 270.151C430.923 270.079 428.435 271.209 427.593 271.344C426.088 271.587 424.782 271.544 423.275 271.386C419.817 271.024 416.76 270.11 414.435 267.41C407.274 259.096 405.09 239.496 414.895 232.423C416.763 231.075 419.365 230.455 420.467 228.217C421.731 225.648 421.156 220.81 421.054 218.102C420.939 215.011 420.794 211.648 420.331 208.601C420.118 207.201 419.959 206.612 419.387 205.21C418.251 202.43 417.918 202.834 415.578 202.166C412.24 201.213 410.73 201.588 408.684 198.427C407.052 195.905 406.288 192.729 406.14 189.747C406.001 186.966 407.259 184.395 406.209 181.876C404.672 178.189 401.821 175.399 400.571 171.364C399.518 167.966 396.798 160.381 399.479 157.246C400.681 155.841 402.814 155.636 404.005 153.756C406.081 150.482 406.919 148.692 409.999 146.111C412.272 144.208 414.454 141.371 417.193 140.207C419.887 139.062 422.43 140.905 424.616 140.399C427 139.848 426.373 134.332 427.035 131.848C427.927 128.498 429.84 125.006 432.157 122.393C432.931 121.52 433.895 121.352 434.497 120.191C435.314 118.62 434.99 116.38 435.626 114.662C436.386 112.608 438.229 109.073 440.291 107.947C446.312 104.658 448.121 113.133 452.701 111.982ZM438.61 355.188C439.46 357.471 438.99 361.142 439.968 363.108C440.747 364.674 443.874 365.667 445.407 367.535C448.69 371.534 449.941 377.957 448.749 382.895C444.731 381.906 442.045 381.273 437.96 381.795C437.548 372.845 437.933 364.134 438.61 355.188ZM388.956 361.933C391.689 364.974 393.045 368.558 392.651 372.623C392.51 374.071 392.066 376.099 391.639 377.49C391.169 379.015 388.836 381.872 389.741 382.69C387.192 382.538 384.195 382.833 382.358 381.188C380.708 379.712 379.555 375.906 378.885 373.889C380.173 371.325 381.461 368.761 382.749 366.198C383.587 367.525 386.048 370.99 388.081 369.881C389.612 369.046 388.376 363.62 388.956 361.933ZM484.895 338.228C488.023 341.128 489.093 346.357 488.933 350.415C488.984 356.009 487.043 367.206 479.754 367.582C473.896 367.883 467.648 359.513 466.99 354.339C466.267 348.668 468.148 335.105 475.6 333.939C478.344 333.509 482.918 336.394 484.895 338.228ZM432.535 345.461C432.66 349.128 432.721 352.656 432.43 356.31C432.187 359.366 432.997 362.974 432.312 365.899C427.978 361.062 422.27 355.795 422.443 348.685C422.606 341.963 428.187 342.535 432.535 345.461ZM388.859 264.648L392.486 268.615C392.59 274.189 392.479 279.699 394.18 285.074C395.97 290.729 398.969 296.178 401.938 301.292C407.71 311.229 409.086 320.603 409.782 331.968C398.927 327.116 393.008 310.537 389.426 300.166C387.53 294.676 385.564 289.181 383.775 283.657C382.011 278.209 378.894 271.09 380.946 265.351C384.889 268.243 386.594 269.734 388.859 264.648ZM456.498 303.767C461.798 307.973 462.199 314.408 464.102 320.289C463.005 321.164 461.8 321.933 460.809 322.93C460.197 323.546 458.754 326.066 458.284 326.325C456.406 327.361 454.766 326.031 452.932 324.361C449.32 321.07 447.066 314.087 447.235 309.257C447.433 303.617 451.43 299.746 456.498 303.767ZM530.656 279.055C537.545 282.992 535.748 293.886 534.889 300.031C534.35 303.883 535.545 307.802 535.461 311.466C535.369 315.601 533.218 314.744 531.842 317.311C530.648 314.198 528.457 310.451 527.958 307.187L527.166 305.122C527.837 304.853 528.193 304.387 528.235 303.722C528.516 302.14 528.512 300.527 528.601 298.914C528.965 292.249 529.471 285.627 530.656 279.055ZM425.693 286.412C424.931 289.313 424.372 294.771 420.089 293.089C416.708 291.761 415.892 286.401 415.885 283.413C415.879 280.96 416.283 276.454 419.722 276.307C423.943 276.126 425.45 283.579 425.693 286.412ZM393.085 205.656C390.235 210.21 388.257 216.936 389.604 222.328C391.017 227.99 395.413 229.36 399.323 225.194C402.549 230.262 395.934 239.289 390.02 234.47C388.742 233.429 387.883 231.436 386.303 230.786C385.007 230.254 383.859 230.977 382.535 230.677C378.465 229.754 376.928 225.766 375.329 222.418C375.768 219.689 376.233 216.984 376.825 214.282C377.14 212.846 377.468 211.412 377.787 209.976C378.329 207.536 378.16 207.841 379.933 206.631C384.609 203.444 387.825 203.287 393.085 205.656ZM395.499 208.114L398.919 215.702C397.055 215.254 395.025 220.833 393.808 221.921C393.239 217.278 394.602 212.629 395.499 208.114ZM393.603 182.196C396.696 183.496 397.311 189.129 397.42 191.854C396.57 194.722 395.776 198.392 392.182 196.372C389.784 195.023 388.756 190.582 388.674 188.156C388.571 185.114 389.717 180.562 393.603 182.196Z" fill="#E05D27"/>
<path fill-rule="evenodd" clip-rule="evenodd" d="M370.438 116.301C369.164 116.872 371.595 121.141 371.973 121.924C372.96 123.969 374.164 128.194 376.502 127.031C374.48 123.454 372.459 119.877 370.438 116.301ZM71.3563 364.011C69.6526 363.257 67.3739 369.742 67.0703 371.059C66.2236 374.729 66.9321 377.195 69.8769 379.568C68.658 374.323 70.1182 369.098 71.3563 364.011ZM464.648 86.3263C462.529 83.5821 459.468 78.4872 455.187 81.1844C453.497 82.2502 452.195 85.6662 451.153 87.335C449.515 89.9548 447.93 92.4769 446.684 95.2973C448.801 94.4293 450.049 92.5419 451.941 91.51C453.234 90.8053 454.414 90.7375 455.659 90.2238C458.413 89.0891 462.185 87.9764 464.648 86.3263ZM119.187 356.7C120.334 361.177 121.394 365.641 122.281 370.175C122.881 373.244 124.896 377.579 123.845 380.581C126.57 380.215 129.295 379.85 132.02 379.485C129.998 374.895 128.934 369.997 128.334 365.039C127.966 362.004 128.438 361.139 126.146 359.451C124.371 358.143 121.247 357.515 119.187 356.7ZM104.115 185.349C109.354 190.581 113.937 196.545 119.504 201.42C122.397 203.954 125.363 206.416 128.332 208.86C130.85 210.931 134.854 215.498 138.131 216.132C138.536 214.464 139.493 211.729 139.237 210.017C140.193 209.031 139.896 208.31 138.346 207.855C137.398 207.127 136.461 206.388 135.532 205.636C131.89 202.603 128.444 199.308 124.993 196.064C121.562 192.839 118.388 189.466 115.41 185.822C113.841 183.904 112.924 181.98 110.351 181.416C107.294 180.747 106.276 183.125 104.115 185.349ZM208.827 379.625C208.679 382.468 215.687 384.21 217.816 384.381C223.572 384.841 227.31 382.323 229.29 377.357C233.414 367.021 240.016 357.914 242.777 347.045C243.596 343.82 244.305 342.352 241.386 340.709C240.188 340.035 237.069 338.532 235.767 339.39C234.527 340.207 233.512 343.881 232.715 345.216C231.449 347.338 230.01 349.355 228.635 351.408C222.207 361.009 215.729 370.359 208.827 379.625ZM125.655 237.275L152.561 252.625C153.683 248.76 154.199 244.731 155.251 240.836C156 238.067 157.926 234.157 157.805 231.726C157.623 228.098 154.806 223.281 153.578 219.822C152.048 215.512 150.517 211.201 148.987 206.89C146.914 208.867 144.528 210.249 144.503 212.825C144.488 214.298 145.472 215.216 144.902 216.885C144.501 218.055 142.799 219.609 141.976 220.479C139.574 223.022 139.65 223.149 137.125 220.771C133.302 226.273 129.478 231.774 125.655 237.275ZM155.256 309.245C155.642 305.547 156.136 302.002 156.97 298.373C157.482 296.144 159.647 291.566 158.935 289.466C158.412 287.923 155.301 286.581 154.09 285.741C150.585 283.311 147.162 280.755 143.692 278.276C140.649 276.102 137.561 273.98 134.576 271.728C131.811 269.643 129.723 267.049 126.377 266.155C123.449 265.373 119.734 265.884 116.702 265.783C112.632 265.648 108.5 265.603 104.434 265.802C90.7897 266.468 75.5047 265.516 62.3782 269.313C56.1744 271.107 52.175 272.163 48.7069 278.026C44.6962 284.807 41.2694 291.852 38.3518 299.177C37.9259 300.246 36.963 301.789 36.9988 302.958C37.0701 305.189 37.8704 304.675 40.0154 305.948C42.3331 307.323 44.605 308.955 46.8191 310.503C50.6157 313.158 55.3293 315.93 59.2681 318C64.0072 320.491 68.7815 322.725 73.6021 325.234C76.6568 326.823 79.8185 328.123 82.8147 329.87C86.0676 331.767 89.7096 332.307 93.2162 333.788C104.074 338.375 114.583 342.614 125.238 347.847C135.638 352.954 146.158 357.271 156.799 361.776C170.552 367.598 184.169 372.984 198.512 377.01C199.562 377.305 201.77 378.345 202.807 378.298C205.025 378.196 205.527 376.579 206.859 374.757C209.477 371.177 211.999 367.528 214.503 363.868C219.934 355.929 225.246 347.902 231.093 340.257C214.523 335.644 199.159 327.133 184.592 318.398C183.972 320.137 183.478 323.989 181.49 324.571C179.032 325.291 177.246 321.893 176.144 320.33C175.102 322.921 173.317 331.658 169.98 331.467C165.369 331.203 166.183 323.962 165.609 321.089C163.067 324.459 160.121 328.336 156.666 323.152C154.272 319.558 154.538 313.252 155.256 309.245ZM347.245 267.952C345.108 267.286 342.986 266.693 340.896 265.947C340.346 264.784 339.434 264.431 338.159 264.889C337.114 264.982 336.098 264.853 335.111 264.501C330.746 263.757 325.91 262.791 321.739 261.535C318.025 260.417 314.522 259.429 310.748 258.589C308.507 258.09 298.524 255.272 297.049 256.931C296.595 257.441 297.376 263.627 297.266 264.729C297.07 266.689 296.974 269.917 295.729 271.549C295.252 272.175 293.434 272.869 292.776 273.357C290.642 274.941 288.669 276.909 286.545 278.551C281.909 282.137 277.393 285.857 272.662 289.325C269.318 291.776 265.491 292.989 261.777 294.77C264.419 295.242 269.59 292.705 272.257 291.918C275.712 290.899 279.102 289.765 282.635 288.832C289.879 286.918 297.301 284.758 304.664 282.72C309.186 281.469 313.962 280.165 318.346 278.508C320.29 277.773 321.817 276.064 323.101 277.803C324.126 279.192 322.886 281.019 322.098 282.048C317.502 288.049 305.019 289.51 298.339 291.999C290.799 294.808 283.359 297.767 275.595 299.741C266.528 302.046 256.686 303.809 248.237 307.858C241.227 311.216 233.286 312.517 225.833 314.488C218.834 316.339 210.534 316.71 203.919 319.852C206.777 322.103 211.004 323.277 214.335 324.791C218.412 326.644 222.531 328.334 226.564 330.298C228.28 331.134 230.076 332.376 231.812 333.071C234.017 333.953 233.734 333.488 236.011 333.308C239.555 333.03 244.337 332.395 247.216 334.969C250.689 338.075 248.488 341.476 248.998 345.276C249.348 347.88 249.526 347.463 252.425 347.86C255.093 348.226 257.758 348.653 260.39 349.222C263.64 349.925 266.966 351.104 270.131 352.12C275.039 353.696 275.572 355.55 280.688 353.516C295.258 347.723 310.327 342.96 324.99 337.478C331.744 334.953 338.526 330.083 344.884 326.424C353.04 321.729 360.414 316.65 365.937 308.834C368.454 305.271 371.079 299.254 370.55 294.831C370.077 290.875 367.144 286.479 365.253 283.077C362.839 278.735 360.713 277.05 357.019 274.165C354.451 272.16 350.483 267.925 347.245 267.952ZM184.985 301.564C185.211 303.747 183.932 312.748 185.199 314.132C187.365 316.5 192.679 313.737 194.735 313.031C201.415 310.74 209.178 311.242 215.979 309.428C222.577 307.668 229.031 305.388 235.666 303.595C239.225 302.633 242.603 301.125 246.104 299.98C250.001 298.704 254.352 298.005 257.966 296.087C257.519 294.977 241.88 297.646 240.103 297.79C233.93 298.29 228.118 297.34 222.033 296.224C208.613 293.761 195.968 287.922 182.721 284.133C183.342 290.228 200.534 291.442 198.486 298.516C197.915 300.487 190.224 303.71 187.68 302.473C182.512 299.959 188.834 296.421 191.41 295.539C187.488 293.296 183.736 290.862 180.157 288.098C176.325 285.14 174.676 280.988 172.622 276.705C168.33 267.749 158.171 262.539 150.279 256.964C141.746 250.936 132.661 245.811 124.133 239.796C122.611 238.722 121.9 239.215 121.365 237.254C120.793 235.155 122.895 232.487 123.915 230.886C126.597 226.676 129.72 222.692 133.262 219.168C128.694 216.066 123.76 213.505 119.476 209.994C115.134 206.435 111.541 202.091 107.71 198.016C101.591 211.301 93.014 223.623 86.2789 236.651C83.6185 241.797 82.2121 249.58 86.2579 254.567C90.5156 259.815 98.4549 257.772 104.465 258.05C110.808 258.344 116.595 259.061 122.851 260.856C125.682 261.669 128.258 261.428 130.979 262.733C134.169 264.262 137.307 266.226 140.342 268.039C146.312 271.604 151.889 276.066 157.525 280.134C159.838 281.802 172.375 291.692 162.458 290.165C162.458 299.42 160.833 308.898 159.98 318.108C162.332 315.306 164.009 312.458 165.432 309.092C166.278 307.089 166.289 301.979 169.109 303.19C173.351 305.012 170.047 318.401 170.047 322.023C171.098 319.996 171.835 317.814 172.591 315.666C173.164 314.04 173.881 309.427 175.077 308.335C179.082 304.684 179.643 314.643 179.643 316.722C180.94 313.05 181.179 309.132 181.309 305.252C181.36 303.722 180.981 301.341 181.368 299.86C182.013 297.392 181.936 297.553 184.527 296.51C184.68 298.194 184.832 299.879 184.985 301.564ZM308.691 379.665C309.009 382.796 310.223 385.063 308.16 387.879C312.148 387.595 316.075 387.245 320.07 387.346C323.278 387.427 328.075 388.159 331.068 386.788C332.288 386.23 332.702 387.191 333.329 386.124C333.925 385.11 332.526 381.746 332.358 380.911C331.552 376.906 331.158 372.797 330.425 368.766C329.923 365.996 328.444 360.548 330.303 357.931C333.036 354.079 334.24 359.505 334.952 361.914C337.297 369.851 337.162 377.389 337.162 385.544C340.694 385.544 345.336 384.005 348.742 383.076C353.442 381.795 358.46 380.478 363.014 378.806C367.308 377.228 371.09 374.927 373.805 371.222C375.837 368.451 380.34 361.613 379.221 358.549C377.85 354.793 371.31 352.209 367.817 351.796C363.286 351.26 358.642 352.168 354.006 352.55C349.042 352.958 344.227 354.061 339.316 354.591C334.547 355.106 328.146 356.694 323.513 355.504C323.392 357.406 324.986 359.962 325.541 361.898C326.269 364.436 326.918 366.997 327.509 369.57C328.142 372.324 332.058 382.226 328.496 384.206C324.316 386.529 322.32 376.579 321.8 374.154C320.558 368.37 319.491 362.592 320.791 356.778C315.455 355.819 309.019 357.244 303.516 357.622C305.566 364.827 306.889 372.373 308.691 379.665ZM78.8573 382.797C80.7128 383.621 83.2628 383.179 85.2797 383.337C88.4318 383.584 91.6161 384.153 94.7891 384.051C99.6308 383.898 104.706 383.287 109.552 382.734C106.788 377.761 105.111 373.052 104.766 367.351C104.642 365.304 103.553 352.605 107.34 353.148C109.167 353.41 108.779 364.254 109.133 366.251C109.649 369.149 110.314 372.116 111.123 374.953C111.711 377.01 113.709 380.092 113.197 382.317C115.64 381.922 118.083 381.527 120.527 381.132C118.627 377.353 117.239 373.967 116.528 369.751C116.184 367.717 116.403 365.185 115.737 363.253C115.316 362.036 114.358 360.89 114.23 359.869C114.082 358.691 115.376 355.796 114.897 354.749C114.427 353.72 111.154 352.768 110.007 352.201C106.846 350.638 104.993 350.243 101.45 351.141C94.6164 352.874 83.8496 354.104 78.753 358.777C73.7041 363.407 71.8667 379.024 78.8573 382.797ZM377.307 157.1C379.199 156.887 381.071 156.755 382.973 156.657C380.194 152.757 377.671 148.68 375.368 144.484C374.239 142.428 373.173 140.34 372.152 138.228C370.98 135.806 371.012 134.224 368.467 133.742C364.942 133.076 360.228 134.408 356.602 134.256C353.801 134.139 347.51 131.509 345.253 132.462C347.311 136.67 345.66 143.216 345.74 147.746C345.82 152.25 345.26 156.604 344.465 161.046C349.272 161.046 355.289 159.39 360.141 158.651C365.791 157.789 371.551 157.745 377.307 157.1ZM300.997 388.332C302.848 388.095 304.609 388.022 306.478 388.022C302.267 381.211 299.087 373.594 299.051 365.478C299.047 364.416 300.326 358.315 299.903 357.809C299.077 356.821 295.654 357.601 294.716 357.694C290.881 358.076 286.618 358.048 283.007 359.426C280.515 360.378 280.488 359.803 279.498 362.728C278.911 364.459 278.49 366.435 278.479 368.255C278.455 371.932 279.63 376.229 281.149 379.54C282.596 382.691 284.881 386.071 288.025 387.764C291.647 389.715 296.75 388.554 300.997 388.332ZM339.286 135.29C338.558 132.577 338.873 133.189 336.452 132.852C335.942 132.782 330.395 132.897 330.077 133.221C329.71 133.595 329.85 139.12 329.802 139.752C329.638 141.92 329.395 144.081 329.158 146.241C328.198 155.012 326.376 163.502 325.01 172.2C328.385 170.11 333.264 172.96 336.147 170.697C338.426 168.91 338.084 163.19 338.254 160.666C338.823 152.219 339.017 143.751 339.286 135.29ZM461.174 125.048C460.87 125.535 460.566 126.021 460.263 126.508C461.442 127.262 468.341 119.593 469.876 118.221C471.919 116.394 475.154 113.954 476.075 111.283C477.146 108.179 476.093 103.278 475.833 100.068C475.648 97.7713 476.042 94.5943 474.165 92.9894C472.437 91.5128 468.181 91.5524 466.135 91.8683C459.995 92.8165 456.303 97.8538 453.204 102.654C456.351 102.268 467.445 97.2147 468.733 99.9476C470.605 103.918 458.954 107.468 457.802 110.952C460.187 111.792 465.448 108.533 463.968 113.956C463.715 114.715 463.274 115.343 462.647 115.841C461.558 116.226 461.3 116.951 461.873 118.017C461.385 120.141 461.485 122.829 461.174 125.048ZM531.842 317.311C531.875 318.599 531.993 319.83 533.048 320.739C535.387 313.348 536.118 305.954 537.087 298.268C538.056 290.58 539.088 282.702 539.242 275.021C539.414 266.413 538.599 257.048 537.203 248.543C536.112 241.894 535.267 233.713 531.294 228.054C533.55 242.719 532.848 256.623 531.327 271.339C530.519 279.153 529.379 286.907 528.856 294.755C528.718 296.828 528.673 298.926 528.493 300.995C528.387 302.214 527.177 304.523 527.166 305.122C527.107 308.444 530.672 314.26 531.842 317.311ZM411.788 305.89C413.665 310.197 415.798 314.441 416.924 319.022C418.111 323.859 417.6 328.364 417.79 333.266C418.106 341.398 417.452 349.483 417.567 357.627C417.664 364.568 417.397 371.336 417.467 378.204C417.511 382.548 417.273 386.876 417.287 391.219C417.287 391.206 417.461 395.116 417.161 395.315C415.817 396.205 414.348 394.94 413.936 393.723L409.952 398.22C412.041 397.696 414.609 396.603 416.755 396.506C417.577 396.205 418.396 396.196 419.211 396.481C420.021 396.969 420.621 397.65 421.011 398.523C426.636 399.718 430.012 394.723 431.022 390.257C433.214 380.568 432.424 371.001 432.265 361.218C431.92 339.966 435.305 318.841 434.985 297.587C434.923 293.474 434.765 289.409 435.385 285.304C436.535 277.678 438.233 284.659 438.505 288.258C439.324 299.073 440.751 310.232 439.966 321.114C439.26 330.919 439.326 340.815 438.836 350.649C438.316 361.102 437.477 371.333 437.96 381.794C440.773 381.436 449.823 380.9 450.765 384.844C451.587 388.283 448.28 387.01 446.562 386.865C443.776 386.629 441.055 387.282 438.01 386.737C438.235 391.363 438.874 397.566 434.731 400.69C432.693 402.226 429.318 403.613 426.937 404.519C424.603 405.407 420.651 407.375 418.22 407.267C416.499 407.191 415.837 406.267 413.949 406.414C411.149 406.634 408.725 408.503 405.756 406.959C400.126 404.031 402.894 395.516 406.449 392.103C407.365 391.223 408.395 390.26 409.625 389.831C410.21 389.627 412.656 389.874 412.938 389.568C413.979 388.441 412.679 381.846 412.54 380.594C411.81 374.029 411.015 367.324 410.715 360.729C410.434 354.529 410.121 348.316 409.906 342.113C409.86 340.763 410.46 337.986 409.893 336.805C408.95 334.843 404.813 333.594 403.018 332.681C404.617 348.313 406.967 365.114 401.178 380.004C400.028 382.96 398.738 387.18 395.823 388.825C393.075 390.376 386.605 390.157 383.313 390.341C379.773 390.539 376.307 389.714 374.357 386.398C372.822 383.788 373.742 380.657 376.893 379.519C378.78 378.838 379.147 379.276 380.8 380.086C381.159 380.667 381.41 381.291 381.556 381.959H382.826C384.548 382.726 391.43 383.583 393.322 382.36C395.515 380.944 395.992 377.116 396.927 374.841C398.664 370.615 399.124 367.185 399.754 362.668C400.741 355.597 399.742 347.399 399.76 340.032C399.766 337.958 399.775 335.883 399.777 333.808C399.781 330.675 400.055 330.694 398.263 328.438C395.562 325.038 392.483 321.564 389.592 318.305C391.158 327.826 390.517 337.851 389.895 347.337C389.546 352.667 388.824 358.094 388.492 363.353C388.393 364.933 389.531 369.29 387.691 369.988C385.825 370.697 383.502 367.391 382.748 366.198C378.634 374.389 373.723 382.289 365.235 386.527C360.87 388.706 356.325 389.689 351.562 390.543C347.149 391.336 343.071 392.78 338.72 393.462C329.715 394.871 321.421 395.071 312.36 394.763C303.811 394.473 295.625 396.047 287.104 394.064C283.778 393.291 280.417 391.87 278.144 389.329C276.904 387.943 276.355 385.761 275.103 384.484C274.821 382.83 273.847 382.321 272.178 382.953C271.13 383 270.086 382.966 269.046 382.849C260.499 382.402 251.001 382.901 242.719 380.465C239.575 379.541 236.066 378.018 237.634 374.093C239.005 370.662 242.787 371.704 245.889 372.003C254.899 372.874 263.767 374.463 272.907 375.262C272.613 370.498 272.866 365.637 274.738 361.181C268.398 360.387 261.825 359.189 255.792 357.169C253.929 356.546 252.075 355.897 250.226 355.231C247.18 354.131 247.813 353.847 246.049 355.765C243.832 358.175 242.475 363.202 240.869 366.114C239.061 369.39 237.327 372.63 235.804 376.05C234.362 379.286 233.287 383.622 231.091 386.411C226.259 392.547 215.101 393.079 208.534 390.669C205.317 389.488 204.156 389.302 202.206 386.426C200.07 383.275 199.54 383.091 195.605 382.663C188.499 381.89 181.793 380.111 175.137 377.654C168.104 375.058 160.883 373.035 153.871 370.232C147.307 367.609 140.963 364.97 134.171 362.922C133.365 368.032 136.704 373.796 136.704 379.065C140.656 378.671 144.341 378.325 148.258 377.697C149.655 377.474 158.455 375.504 159.314 376.666C162.893 381.512 146.608 383.792 144.063 384.432C135.906 386.486 127.588 388.394 119.38 389.982C111.001 391.602 102.834 393.215 94.3286 393.506C79.9368 393.998 60.086 393.169 60.773 374.304C61.0426 366.912 64.095 358.89 69.9358 354.069C73.5699 351.069 78.1017 349.42 82.5446 348.063C84.186 347.561 92.8333 346.389 93.0962 345.744C90.6595 344.001 86.4947 343.547 83.6037 342.204C80.8476 340.924 77.9391 340.447 75.1178 339.156C69.4804 336.578 64.0355 333.425 58.8229 330.237C54.6774 327.701 50.486 324.901 46.6695 321.886C43.637 319.491 40.7308 317.188 38.3065 314.45C37.0378 313.018 34.792 311.749 33.7758 310.516C30.2075 306.183 33.9707 297.562 35.4904 292.518C37.7101 285.145 40.6724 277.299 45.0411 270.912C49.0586 265.039 53.5378 261.082 60.7442 259.706C67.3955 258.436 74.0836 258.034 80.8861 257.677C79.7431 253.339 78.134 250.277 78.5423 245.519C78.9275 241.031 81.1988 236.572 82.9813 232.484C86.2953 224.886 89.4219 217.45 93.9543 210.454C96.4453 206.61 99.2434 202.96 101.963 199.276C102.401 198.683 105.127 195.966 105.022 195.2C104.919 194.44 102.182 192.124 101.763 191.593C98.9483 188.029 97.0027 184.19 100.308 180.375C102.031 178.386 107.097 174.37 109.535 176.897C112.172 171.581 116.783 167.957 120.374 163.435C124.85 157.797 129.124 152.072 133.314 146.166C137.487 140.286 140.895 133.969 146.425 129.23C152.588 123.949 158.39 124.405 165.959 126.663C166.391 123.75 166.992 124.137 169.816 123.165C171.954 122.429 174.032 121.555 176.134 120.724C178.367 119.839 180.629 119.337 182.912 118.642C185.955 117.717 186.412 118.019 186.906 114.077C187.504 109.315 185.461 104.279 184.144 99.7927C183.493 97.5792 183.041 94.8238 181.578 93.3347C180.255 91.9881 177.908 91.3749 176.46 89.8859C163.987 77.0574 163.79 49.6669 177.077 37.7443C179.659 35.4268 181.789 32.3091 185.004 30.7443C188.533 29.0259 193.188 27.6363 197.075 26.8265C205.088 25.1583 214.074 25.6878 220.407 31.3072C223.531 34.0785 225.436 38.4834 226.501 42.4183C227.518 46.1768 227.3 52.5297 223.444 46.721C221.012 43.0574 218.9 39.3209 214.783 37.5086C211.105 35.8896 206.614 35.0154 202.606 35.359C193.162 36.1682 185.509 38.935 178.971 45.9089C171.743 53.6198 171.375 65.9306 172.933 75.7357C174.306 72.8356 175.236 68.2435 179.086 67.6897C182.294 67.228 187.351 71.3149 185.629 74.8332C177.817 72.8463 175.532 84.6332 182.288 85.343C184.333 85.5577 186.923 81.9253 188.806 82.7712C192.328 84.3524 187.608 89.8011 186.678 91.5953C186.183 91.8988 185.689 92.2022 185.194 92.5063C185.681 93.6353 186.173 94.7627 186.67 95.8879C187.272 97.3227 187.845 98.7608 188.374 100.224C189.662 103.786 190.997 107.459 191.773 111.169C192.561 114.942 192.971 119.348 191.107 122.892C189.058 126.788 187.128 126.309 185.554 122.603C181.434 125.194 177.291 127.956 172.448 128.979C177.527 137.48 184.102 144.789 193.988 147.463C202.367 149.729 212.914 149.646 220.909 145.897C229.205 142.006 233.77 132.912 232.782 123.865C232.462 120.935 230.753 110.757 234.819 118.12C237.049 122.157 237.213 128.707 236.704 133.134C234.272 154.313 212.754 162.237 194.199 157.138C184.681 154.522 177.821 147.521 172.715 139.279C171.524 137.357 170.434 135.373 169.37 133.379C168.944 132.582 168.57 131.47 168.002 130.771C165.778 128.032 167.963 129.558 165.602 129.215C161.947 128.685 156.197 131.477 153.483 133.689C146.12 139.691 142.042 149.292 136.391 156.857C130.375 164.91 122.734 172.077 115.069 178.502C123.739 187.362 132.409 196.222 141.079 205.081C142.87 203.103 146.274 198.583 146.751 195.938C147.03 194.388 145.776 189.286 149.631 191.557C152.234 193.09 153.221 199.653 154.033 202.338C155.287 206.484 157.399 210.389 158.764 214.493C161.295 222.107 164.415 229.654 167.008 237.323C168.063 240.441 171.07 244.311 168.181 246.951C163.789 250.962 162.484 243.065 161.321 240.048C159.702 242.294 159.912 245.936 159.077 248.556C158.567 250.156 157.015 252.647 157.066 254.224C157.154 256.92 159.607 257.722 161.818 259.229C165.93 262.032 170.151 264.768 173.918 268.033C175.49 269.395 176.936 270.772 178.083 272.524C179.084 274.054 179.385 277.502 180.492 278.567C181.94 279.958 187.291 278.988 190.117 279.291C194.836 279.798 199.618 281.472 204.199 282.675C212.305 284.803 220.643 287.868 229.133 289.005C237.47 290.121 245.294 289.567 253.604 288.08C258.143 287.267 263.018 286.296 267.16 284.118C271.931 281.61 276.162 277.598 280.618 274.568C282.612 273.212 284.653 271.93 286.692 270.644C289.418 268.926 288.705 269.298 288.882 266.569C289.088 263.409 290.41 257.376 288.295 254.564C287.411 253.39 284.701 252.532 283.425 251.678C281.57 250.435 279.907 248.992 277.918 247.992C275.748 246.901 275.684 247.765 274.677 245.088C273.762 242.657 273.158 240.111 272.318 237.654C268.474 226.418 267.481 215.007 265.889 203.275C265.148 197.826 263.333 190.411 265.389 185.102C268.248 177.719 270.641 188.044 271.244 190.691C273.973 186.026 275.542 180.839 278.381 176.234C280.037 173.549 280.847 172.177 281.78 169.235C282.157 168.044 282.309 167.054 283.107 166.065C284.797 163.972 285.047 165.165 286.803 165.113C292.33 164.951 297.761 165.093 303.293 165.349C306.35 165.49 309.407 165.565 312.486 165.553C313.986 165.548 315.504 165.475 317.002 165.561C317.81 165.552 318.614 165.612 319.413 165.741C321.064 166.509 321.694 165.847 321.304 163.753C322.741 160.754 322.645 155.969 323.153 152.697C323.665 149.404 324.14 146.105 324.568 142.799C324.797 141.032 326.717 134.364 325.698 132.912C324.688 131.473 319.425 131.796 317.868 131.537C307.517 129.821 297.888 125.565 288.206 122.078C283.439 120.362 278.914 118.044 274.342 115.939C271.962 114.843 269.713 112.585 267.204 111.882C264.039 110.995 259.836 112.413 256.681 112.947C250.669 113.965 244.869 114.856 238.769 115.187C236.614 115.304 232.514 115.907 230.57 114.429C226.664 111.462 231.111 109.726 233.664 109.351C244.956 107.695 256.214 106.742 267.593 106.051C268.126 106.018 270.081 105.622 270.731 105.827C272.213 106.294 271.615 106.835 272.503 107.317C274.148 108.208 276.025 108.865 278.112 109.418C284.071 110.997 290.072 113.646 296.051 115.728C306.809 119.474 319.663 125.446 330.422 124.396C333.077 124.137 335.261 123.806 338.037 124.074C341.288 124.389 343.185 126.053 345.683 126.536C349.03 127.184 353.816 126.697 357.339 126.822C360.698 126.94 364.059 127.096 367.419 127.096C364.468 121.176 362.671 115.617 361.013 109.259C360.108 105.792 358.747 102.643 359.337 98.9908C359.615 97.2673 360.306 95.6477 361.058 94.0908C362.195 91.7406 362.518 92.2322 362.921 89.6293C363.476 86.0471 362.68 82.27 363.116 78.677C363.564 74.9897 366.357 71.7031 366.668 68.178C366.834 66.3024 365.782 64.7715 366.097 62.7484C366.378 60.939 367.452 59.0419 368.417 57.5184C370.663 53.9684 373.399 51.9555 377.195 50.5094C380.246 49.347 384.141 48.2807 387.224 50.163C390.37 52.0832 390.143 55.948 391.65 58.7679C394.891 64.8314 402.369 70.2502 408.33 73.347C413.806 76.1917 419.705 77.9887 425.576 79.844C429.15 80.9731 432.824 81.7783 436.336 83.0685C438.863 83.9975 442.986 86.2506 445.56 84.8819C447.804 83.689 450.42 80.0485 452.641 78.3583C455.239 76.381 458.704 74.4512 461.975 76.1736C465.246 77.8955 464.977 84.2428 467.521 85.4363C468.408 85.8522 471.04 84.6338 472.249 84.8259C474.201 85.1356 475.545 86.341 476.715 87.8249C481.086 93.3703 482.439 102.166 482.63 109.002C482.726 112.417 482.643 116.663 480.553 119.562C478.115 122.944 473.501 123.028 470.371 125.407C467.869 127.31 466.095 130.422 463.555 132.45C461.99 133.7 461.386 132.74 460.738 134.688C460.316 135.955 461.169 138.427 461.42 139.652C462.976 147.215 465.89 154.19 468.655 161.394C469.958 164.788 471.063 168.183 471.658 171.781C472.047 174.141 471.598 176.205 471.786 178.476C471.92 180.093 472.609 181.489 472.458 183.147C472.136 186.658 470.225 189.76 469.01 192.848C467.624 196.368 469.528 202.465 470.923 206.106C474.267 214.829 478.97 223.642 483.148 232.023C487.253 240.256 490.306 249.024 495.087 256.933C499.731 264.614 505.195 272.135 510.479 279.399C513.418 283.44 516.537 287.284 519.201 291.522C519.783 292.449 523.758 300.135 524.789 299.869C523.525 286.456 524.803 272.507 525.368 259.103C526.075 242.324 523.935 227.126 519.202 211.11C518.096 207.365 517.11 203.534 516.332 199.708C515.787 197.029 514.249 194.827 518.025 195.998C524.278 197.937 529.781 209.714 532.96 214.84C540.079 226.321 546.026 241.632 546.824 255.099C547.607 268.316 546.932 280.963 545.276 293.986C544.459 300.411 543.139 307.573 541.121 313.717C540.084 316.878 538.838 320.152 537.456 323.18C536.872 324.458 535.591 325.903 535.37 327.307C535.02 329.535 536.656 332.542 537.066 334.742C538.404 341.942 538.711 349.404 538.255 356.711C538.011 360.63 537.469 364.134 536.187 367.82C534.554 372.515 535.313 376.102 535.992 380.942C536.72 386.122 537.416 397.896 532.018 400.839C531.637 400.8 531.254 400.76 530.873 400.721C529.908 399.612 529.052 399.678 528.304 400.919C526.908 401.374 525.544 402.544 524.074 403.047C520.661 404.217 516.979 404.288 513.42 404.801C506.453 405.808 499.51 407.583 492.666 407.798C484.562 408.052 476.107 407.735 468.183 406.318C466.545 406.024 464.631 405.25 462.993 405.101C460.77 404.899 459.209 406.374 456.914 406.027C453.357 405.49 451.11 401.734 450.877 398.657C450.136 388.85 455.589 384.353 464.501 382.611C458.743 374.386 452.113 367.638 450.581 357.074C449.072 346.681 452.343 334.652 458.284 326.325C463.987 318.332 473.718 312.988 483.753 315.016C488.41 315.957 510.383 322.43 506.135 329.771C505.194 326.413 499.401 327.063 496.602 326.578C491.959 325.773 487.317 324.56 482.606 324.81C473.341 325.301 464.386 330.769 459.899 339.047C454.727 348.589 457.087 358.113 463.314 366.26C469.008 373.71 474.877 381.537 482.534 386.916C481.054 389.264 481.589 390.001 478.649 389.58C476.63 389.292 474.742 387.721 472.702 387.33C468.471 386.52 461.813 389.978 459.199 393.437C457.654 395.48 457.711 396.49 460.559 397.748C462.66 398.677 465.969 398.197 468.227 398.398C473.841 398.898 479.564 399.066 485.197 399.046C494.948 399.01 504.016 397.449 513.666 396.439C517.943 395.991 522.416 396.507 526.6 394.937C532.268 392.811 530.88 386.564 530.145 381.505C529.417 376.493 530.158 372.605 530.948 367.642C531.29 365.486 531.929 362.997 531.476 360.827C530.939 358.249 529.976 357.108 530.098 354.233C530.536 344.001 529.249 333.225 526.531 323.349C520.627 301.899 506.211 284.971 494.188 266.74C490.792 261.591 487.222 256.711 484.519 251.135C481.958 245.852 480.194 240.264 477.651 234.966C472.046 223.289 466.729 211.261 463.453 198.701C459.741 200.159 455.742 202.303 451.762 202.817C447.254 203.399 442.434 199.767 439.591 196.568C433.106 189.274 431.627 179.381 432.112 169.981C432.255 167.198 432.429 164.394 432.928 161.648C433.253 159.867 435.353 155.554 434.875 153.894C434.362 152.117 431.377 150.572 430.461 148.813C429.293 146.573 429.159 143.689 429.221 141.218C429.279 138.962 430.527 127.917 434.112 132.431C436.165 135.018 433.164 144.769 435.248 146.097C437.123 147.291 439.706 145.832 441.65 148.562C443.75 151.512 442.625 155.149 441.889 158.291C440.367 164.788 438.938 171.805 438.977 178.478C439.011 184.554 440.1 192.236 446.755 194.694C450.117 195.936 452.67 195.082 455.177 192.769C455.752 192.109 456.338 191.46 456.936 190.821C457.485 189.88 458.326 189.763 459.461 190.47C460.301 189.805 461.546 185.205 461.967 184.177C467.121 171.575 458.995 157.106 456.015 144.742C454.193 137.179 452.604 129.593 456.293 122.294C456.89 121.112 458.535 120.086 457.548 118.39C457.288 117.944 454.805 117.735 454.217 117.217C452.301 115.53 452.701 112.386 452.701 110.134C448.271 111.497 446.994 108.058 447.57 103.843C444.266 104.366 441.971 105.374 440.747 101.56C439.663 98.1771 441.301 94.7277 442.388 91.5755C427.099 89.9407 410.586 87.8459 398.402 77.3202C395.397 74.7247 392.899 71.4578 390.817 68.0734C390.441 67.4614 388.669 63.1531 388.082 62.9282C386.337 62.2596 384.872 65.6661 383.322 66.5098C381.943 67.2591 379.983 67.6722 378.452 68.1288C377.01 68.5589 371.929 68.6447 371.028 69.3913C368.775 71.2584 368.952 82.0524 368.935 84.5575C368.874 93.1855 370.804 101.784 374.374 109.639C377.736 117.037 382.881 127.212 389.606 132.053C391.305 133.277 392.835 133.912 394.988 133.811C396.527 133.739 398.052 132.664 399.654 133.223C403.708 134.638 402.258 137.45 399.141 138.779C390.234 142.58 382.727 134.224 377.576 128.386C376.068 135.312 383.062 143.508 386.763 149.159C389.12 152.76 391.452 156.365 393.695 160.04C395.324 162.709 398.526 167.638 392.839 165.576C390.095 179.943 382.565 192.507 378.72 206.467C374.772 220.798 371.331 237.162 371.331 252.087C374.337 249.999 375.853 240.486 379.896 247.767C380.333 248.555 380.196 249.858 380.773 250.547C381.57 251.499 382.53 251.234 383.752 251.913C385.689 252.988 386.938 255.132 385.207 256.992C387.437 256.474 389.773 256.738 390.254 259.37C390.523 260.847 388.355 267.69 386.738 268.249C381.806 269.952 376.338 260.129 375.002 257.005C371.922 260.09 368.372 262.462 365.532 257.473C363.416 253.754 364.644 248.129 364.943 244.081C365.544 235.926 366.329 227.972 367.509 219.897C369.72 204.753 375.332 191.285 382.226 177.654C384.124 173.902 386.227 170.062 387.923 166.223C390.479 160.431 386.479 161.798 382.568 162.639C374.907 164.287 366.885 165.566 359.144 166.15C355.103 166.454 349.929 166.636 346.046 167.801C343.316 168.62 343.784 168.054 342.688 170.972C342.197 172.277 341.644 173.665 340.779 174.783C336.368 180.486 324.942 179.532 318.632 179.107C319.015 176.702 319.392 174.295 319.789 171.893C314.931 173.031 309.162 173.824 304.16 173.766C301.466 173.735 298.602 173.326 295.915 173.103C293.935 172.938 290.179 171.537 288.315 172.082C286.154 172.714 282.885 180.511 281.649 183.025C279.329 187.747 275.182 192.992 273.718 197.963C272.42 202.37 275.069 209.974 275.901 214.361C277.103 220.703 278.199 227.056 280.215 233.205C281.676 237.663 283.36 243.809 287.846 246.033C292.317 248.249 295.529 249.496 300.367 249.045C308.887 248.25 317.952 249.555 326.363 251.207C335.024 252.909 342.956 253.675 351.18 256.707C369.835 263.586 381.714 284.777 374.681 304.189C370.635 315.355 363.971 323.653 354.195 330.56C349.213 334.08 343.328 336.935 337.866 339.648C335.359 340.893 332.894 342.404 330.338 343.511C328.471 344.32 325.261 346.181 323.232 346.385C325.484 347.454 327.477 346.453 329.82 346.121C333.135 345.65 336.521 345.55 339.848 345.139C345.027 344.5 350.129 344.017 355.31 343.376C359.732 342.828 364.721 342.634 369.116 343.264C371.239 343.569 374.434 344.17 376.325 345.191C377.812 345.993 379.175 347.842 380.774 348.758C382.533 341.553 381.71 332.67 381.792 325.266C381.86 319.222 382.13 313.311 382.7 307.294C383.339 300.566 379.213 292.914 377.689 286.323C376.264 280.155 372.465 272.338 373.863 265.9C375.626 257.785 380.241 272.364 380.875 274.448C382.862 280.97 385.168 287.337 387.369 293.782C389.987 301.448 392.625 308.877 396.439 316.061C399.613 322.04 403.26 329.053 409.782 331.969C409.244 323.177 408.646 315.036 404.983 306.931C401.509 299.244 396.211 292.408 393.895 284.172C392.745 280.079 392.576 275.893 392.519 271.666C392.48 268.822 392.611 264.998 395.669 268.065C398.093 270.497 398.564 278.253 399.626 281.527C400.137 283.103 400.845 284.55 401.41 286.082C401.664 286.772 403.376 290.135 403.376 290.586C405.142 295.901 409.045 300.999 411.788 305.89Z" fill="#0A0D14"/>
<path fill-rule="evenodd" clip-rule="evenodd" d="M370.438 116.301C369.164 116.872 371.595 121.141 371.973 121.924C372.96 123.969 374.164 128.194 376.502 127.031C374.48 123.454 372.459 119.877 370.438 116.301ZM71.3563 364.011C69.6526 363.257 67.3739 369.742 67.0703 371.059C66.2236 374.729 66.9321 377.195 69.8769 379.568C68.658 374.323 70.1182 369.098 71.3563 364.011ZM464.648 86.3263C462.529 83.5821 459.468 78.4872 455.187 81.1844C453.497 82.2502 452.195 85.6662 451.153 87.335C449.515 89.9548 447.93 92.4769 446.684 95.2973C448.801 94.4293 450.049 92.5419 451.941 91.51C453.234 90.8053 454.414 90.7375 455.659 90.2238C458.413 89.0891 462.185 87.9764 464.648 86.3263ZM119.187 356.7C120.334 361.177 121.394 365.641 122.281 370.175C122.881 373.244 124.896 377.579 123.845 380.581C126.57 380.215 129.295 379.85 132.02 379.485C129.998 374.895 128.934 369.997 128.334 365.039C127.966 362.004 128.438 361.139 126.146 359.451C124.371 358.143 121.247 357.515 119.187 356.7ZM104.115 185.349C109.354 190.581 113.937 196.545 119.504 201.42C122.397 203.954 125.363 206.416 128.332 208.86C130.85 210.931 134.854 215.498 138.131 216.132C138.536 214.464 139.493 211.729 139.237 210.017C140.193 209.031 139.896 208.31 138.346 207.855C137.398 207.127 136.461 206.388 135.532 205.636C131.89 202.603 128.444 199.308 124.993 196.064C121.562 192.839 118.388 189.466 115.41 185.822C113.841 183.904 112.924 181.98 110.351 181.416C107.294 180.747 106.276 183.125 104.115 185.349ZM208.827 379.625C208.679 382.468 215.687 384.21 217.816 384.381C223.572 384.841 227.31 382.323 229.29 377.357C233.414 367.021 240.016 357.914 242.777 347.045C243.596 343.82 244.305 342.352 241.386 340.709C240.188 340.035 237.069 338.532 235.767 339.39C234.527 340.207 233.512 343.881 232.715 345.216C231.449 347.338 230.01 349.355 228.635 351.408C222.207 361.009 215.729 370.359 208.827 379.625ZM125.655 237.275L152.561 252.625C153.683 248.76 154.199 244.731 155.251 240.836C156 238.067 157.926 234.157 157.805 231.726C157.623 228.098 154.806 223.281 153.578 219.822C152.048 215.512 150.517 211.201 148.987 206.89C146.914 208.867 144.528 210.249 144.503 212.825C144.488 214.298 145.472 215.216 144.902 216.885C144.501 218.055 142.799 219.609 141.976 220.479C139.574 223.022 139.65 223.149 137.125 220.771C133.302 226.273 129.478 231.774 125.655 237.275ZM155.256 309.245C155.642 305.547 156.136 302.002 156.97 298.373C157.482 296.144 159.647 291.566 158.935 289.466C158.412 287.923 155.301 286.581 154.09 285.741C150.585 283.311 147.162 280.755 143.692 278.276C140.649 276.102 137.561 273.98 134.576 271.728C131.811 269.643 129.723 267.049 126.377 266.155C123.449 265.373 119.734 265.884 116.702 265.783C112.632 265.648 108.5 265.603 104.434 265.802C90.7897 266.468 75.5047 265.516 62.3782 269.313C56.1744 271.107 52.175 272.163 48.7069 278.026C44.6962 284.807 41.2694 291.852 38.3518 299.177C37.9259 300.246 36.963 301.789 36.9988 302.958C37.0701 305.189 37.8704 304.675 40.0154 305.948C42.3331 307.323 44.605 308.955 46.8191 310.503C50.6157 313.158 55.3293 315.93 59.2681 318C64.0072 320.491 68.7815 322.725 73.6021 325.234C76.6568 326.823 79.8185 328.123 82.8147 329.87C86.0676 331.767 89.7096 332.307 93.2162 333.788C104.074 338.375 114.583 342.614 125.238 347.847C135.638 352.954 146.158 357.271 156.799 361.776C170.552 367.598 184.169 372.984 198.512 377.01C199.562 377.305 201.77 378.345 202.807 378.298C205.025 378.196 205.527 376.579 206.859 374.757C209.477 371.177 211.999 367.528 214.503 363.868C219.934 355.929 225.246 347.902 231.093 340.257C214.523 335.644 199.159 327.133 184.592 318.398C183.972 320.137 183.478 323.989 181.49 324.571C179.032 325.291 177.246 321.893 176.144 320.33C175.102 322.921 173.317 331.658 169.98 331.467C165.369 331.203 166.183 323.962 165.609 321.089C163.067 324.459 160.121 328.336 156.666 323.152C154.272 319.558 154.538 313.252 155.256 309.245ZM347.245 267.952C345.108 267.286 342.986 266.693 340.896 265.947C340.346 264.784 339.434 264.431 338.159 264.889C337.114 264.982 336.098 264.853 335.111 264.501C330.746 263.757 325.91 262.791 321.739 261.535C318.025 260.417 314.522 259.429 310.748 258.589C308.507 258.09 298.524 255.272 297.049 256.931C296.595 257.441 297.376 263.627 297.266 264.729C297.07 266.689 296.974 269.917 295.729 271.549C295.252 272.175 293.434 272.869 292.776 273.357C290.642 274.941 288.669 276.909 286.545 278.551C281.909 282.137 277.393 285.857 272.662 289.325C269.318 291.776 265.491 292.989 261.777 294.77C264.419 295.242 269.59 292.705 272.257 291.918C275.712 290.899 279.102 289.765 282.635 288.832C289.879 286.918 297.301 284.758 304.664 282.72C309.186 281.469 313.962 280.165 318.346 278.508C320.29 277.773 321.817 276.064 323.101 277.803C324.126 279.192 322.886 281.019 322.098 282.048C317.502 288.049 305.019 289.51 298.339 291.999C290.799 294.808 283.359 297.767 275.595 299.741C266.528 302.046 256.686 303.809 248.237 307.858C241.227 311.216 233.286 312.517 225.833 314.488C218.834 316.339 210.534 316.71 203.919 319.852C206.777 322.103 211.004 323.277 214.335 324.791C218.412 326.644 222.531 328.334 226.564 330.298C228.28 331.134 230.076 332.376 231.812 333.071C234.017 333.953 233.734 333.488 236.011 333.308C239.555 333.03 244.337 332.395 247.216 334.969C250.689 338.075 248.488 341.476 248.998 345.276C249.348 347.88 249.526 347.463 252.425 347.86C255.093 348.226 257.758 348.653 260.39 349.222C263.64 349.925 266.966 351.104 270.131 352.12C275.039 353.696 275.572 355.55 280.688 353.516C295.258 347.723 310.327 342.96 324.99 337.478C331.744 334.953 338.526 330.083 344.884 326.424C353.04 321.729 360.414 316.65 365.937 308.834C368.454 305.271 371.079 299.254 370.55 294.831C370.077 290.875 367.144 286.479 365.253 283.077C362.839 278.735 360.713 277.05 357.019 274.165C354.451 272.16 350.483 267.925 347.245 267.952ZM184.985 301.564C185.211 303.747 183.932 312.748 185.199 314.132C187.365 316.5 192.679 313.737 194.735 313.031C201.415 310.74 209.178 311.242 215.979 309.428C222.577 307.668 229.031 305.388 235.666 303.595C239.225 302.633 242.603 301.125 246.104 299.98C250.001 298.704 254.352 298.005 257.966 296.087C257.519 294.977 241.88 297.646 240.103 297.79C233.93 298.29 228.118 297.34 222.033 296.224C208.613 293.761 195.968 287.922 182.721 284.133C183.342 290.228 200.534 291.442 198.486 298.516C197.915 300.487 190.224 303.71 187.68 302.473C182.512 299.959 188.834 296.421 191.41 295.539C187.488 293.296 183.736 290.862 180.157 288.098C176.325 285.14 174.676 280.988 172.622 276.705C168.33 267.749 158.171 262.539 150.279 256.964C141.746 250.936 132.661 245.811 124.133 239.796C122.611 238.722 121.9 239.215 121.365 237.254C120.793 235.155 122.895 232.487 123.915 230.886C126.597 226.676 129.72 222.692 133.262 219.168C128.694 216.066 123.76 213.505 119.476 209.994C115.134 206.435 111.541 202.091 107.71 198.016C101.591 211.301 93.014 223.623 86.2789 236.651C83.6185 241.797 82.2121 249.58 86.2579 254.567C90.5156 259.815 98.4549 257.772 104.465 258.05C110.808 258.344 116.595 259.061 122.851 260.856C125.682 261.669 128.258 261.428 130.979 262.733C134.169 264.262 137.307 266.226 140.342 268.039C146.312 271.604 151.889 276.066 157.525 280.134C159.838 281.802 172.375 291.692 162.458 290.165C162.458 299.42 160.833 308.898 159.98 318.108C162.332 315.306 164.009 312.458 165.432 309.092C166.278 307.089 166.289 301.979 169.109 303.19C173.351 305.012 170.047 318.401 170.047 322.023C171.098 319.996 171.835 317.814 172.591 315.666C173.164 314.04 173.881 309.427 175.077 308.335C179.082 304.684 179.643 314.643 179.643 316.722C180.94 313.05 181.179 309.132 181.309 305.252C181.36 303.722 180.981 301.341 181.368 299.86C182.013 297.392 181.936 297.553 184.527 296.51C184.68 298.194 184.832 299.879 184.985 301.564ZM308.691 379.665C309.009 382.796 310.223 385.063 308.16 387.879C312.148 387.595 316.075 387.245 320.07 387.346C323.278 387.427 328.075 388.159 331.068 386.788C332.288 386.23 332.702 387.191 333.329 386.124C333.925 385.11 332.526 381.746 332.358 380.911C331.552 376.906 331.158 372.797 330.425 368.766C329.923 365.996 328.444 360.548 330.303 357.931C333.036 354.079 334.24 359.505 334.952 361.914C337.297 369.851 337.162 377.389 337.162 385.544C340.694 385.544 345.336 384.005 348.742 383.076C353.442 381.795 358.46 380.478 363.014 378.806C367.308 377.228 371.09 374.927 373.805 371.222C375.837 368.451 380.34 361.613 379.221 358.549C377.85 354.793 371.31 352.209 367.817 351.796C363.286 351.26 358.642 352.168 354.006 352.55C349.042 352.958 344.227 354.061 339.316 354.591C334.547 355.106 328.146 356.694 323.513 355.504C323.392 357.406 324.986 359.962 325.541 361.898C326.269 364.436 326.918 366.997 327.509 369.57C328.142 372.324 332.058 382.226 328.496 384.206C324.316 386.529 322.32 376.579 321.8 374.154C320.558 368.37 319.491 362.592 320.791 356.778C315.455 355.819 309.019 357.244 303.516 357.622C305.566 364.827 306.889 372.373 308.691 379.665ZM78.8573 382.797C80.7128 383.621 83.2628 383.179 85.2797 383.337C88.4318 383.584 91.6161 384.153 94.7891 384.051C99.6308 383.898 104.706 383.287 109.552 382.734C106.788 377.761 105.111 373.052 104.766 367.351C104.642 365.304 103.553 352.605 107.34 353.148C109.167 353.41 108.779 364.254 109.133 366.251C109.649 369.149 110.314 372.116 111.123 374.953C111.711 377.01 113.709 380.092 113.197 382.317C115.64 381.922 118.083 381.527 120.527 381.132C118.627 377.353 117.239 373.967 116.528 369.751C116.184 367.717 116.403 365.185 115.737 363.253C115.316 362.036 114.358 360.89 114.23 359.869C114.082 358.691 115.376 355.796 114.897 354.749C114.427 353.72 111.154 352.768 110.007 352.201C106.846 350.638 104.993 350.243 101.45 351.141C94.6164 352.874 83.8496 354.104 78.753 358.777C73.7041 363.407 71.8667 379.024 78.8573 382.797ZM377.307 157.1C379.199 156.887 381.071 156.755 382.973 156.657C380.194 152.757 377.671 148.68 375.368 144.484C374.239 142.428 373.173 140.34 372.152 138.228C370.98 135.806 371.012 134.224 368.467 133.742C364.942 133.076 360.228 134.408 356.602 134.256C353.801 134.139 347.51 131.509 345.253 132.462C347.311 136.67 345.66 143.216 345.74 147.746C345.82 152.25 345.26 156.604 344.465 161.046C349.272 161.046 355.289 159.39 360.141 158.651C365.791 157.789 371.551 157.745 377.307 157.1ZM300.997 388.332C302.848 388.095 304.609 388.022 306.478 388.022C302.267 381.211 299.087 373.594 299.051 365.478C299.047 364.416 300.326 358.315 299.903 357.809C299.077 356.821 295.654 357.601 294.716 357.694C290.881 358.076 286.618 358.048 283.007 359.426C280.515 360.378 280.488 359.803 279.498 362.728C278.911 364.459 278.49 366.435 278.479 368.255C278.455 371.932 279.63 376.229 281.149 379.54C282.596 382.691 284.881 386.071 288.025 387.764C291.647 389.715 296.75 388.554 300.997 388.332ZM339.286 135.29C338.558 132.577 338.873 133.189 336.452 132.852C335.942 132.782 330.395 132.897 330.077 133.221C329.71 133.595 329.85 139.12 329.802 139.752C329.638 141.92 329.395 144.081 329.158 146.241C328.198 155.012 326.376 163.502 325.01 172.2C328.385 170.11 333.264 172.96 336.147 170.697C338.426 168.91 338.084 163.19 338.254 160.666C338.823 152.219 339.017 143.751 339.286 135.29ZM461.174 125.048C460.87 125.535 460.566 126.021 460.263 126.508C461.442 127.262 468.341 119.593 469.876 118.221C471.919 116.394 475.154 113.954 476.075 111.283C477.146 108.179 476.093 103.278 475.833 100.068C475.648 97.7713 476.042 94.5943 474.165 92.9894C472.437 91.5128 468.181 91.5524 466.135 91.8683C459.995 92.8165 456.303 97.8538 453.204 102.654C456.351 102.268 467.445 97.2147 468.733 99.9476C470.605 103.918 458.954 107.468 457.802 110.952C460.187 111.792 465.448 108.533 463.968 113.956C463.715 114.715 463.274 115.343 462.647 115.841C461.558 116.226 461.3 116.951 461.873 118.017C461.385 120.141 461.485 122.829 461.174 125.048ZM531.842 317.311C531.875 318.599 531.993 319.83 533.048 320.739C535.387 313.348 536.118 305.954 537.087 298.268C538.056 290.58 539.088 282.702 539.242 275.021C539.414 266.413 538.599 257.048 537.203 248.543C536.112 241.894 535.267 233.713 531.294 228.054C533.55 242.719 532.848 256.623 531.327 271.339C530.519 279.153 529.379 286.907 528.856 294.755C528.718 296.828 528.673 298.926 528.493 300.995C528.387 302.214 527.177 304.523 527.166 305.122C527.107 308.444 530.672 314.26 531.842 317.311ZM411.788 305.89C413.665 310.197 415.798 314.441 416.924 319.022C418.111 323.859 417.6 328.364 417.79 333.266C418.106 341.398 417.452 349.483 417.567 357.627C417.664 364.568 417.397 371.336 417.467 378.204C417.511 382.548 417.273 386.876 417.287 391.219C417.287 391.206 417.461 395.116 417.161 395.315C415.817 396.205 414.348 394.94 413.936 393.723L409.952 398.22C412.041 397.696 414.609 396.603 416.755 396.506C417.577 396.205 418.396 396.196 419.211 396.481C420.021 396.969 420.621 397.65 421.011 398.523C426.636 399.718 430.012 394.723 431.022 390.257C433.214 380.568 432.424 371.001 432.265 361.218C431.92 339.966 435.305 318.841 434.985 297.587C434.923 293.474 434.765 289.409 435.385 285.304C436.535 277.678 438.233 284.659 438.505 288.258C439.324 299.073 440.751 310.232 439.966 321.114C439.26 330.919 439.326 340.815 438.836 350.649C438.316 361.102 437.477 371.333 437.96 381.794C440.773 381.436 449.823 380.9 450.765 384.844C451.587 388.283 448.28 387.01 446.562 386.865C443.776 386.629 441.055 387.282 438.01 386.737C438.235 391.363 438.874 397.566 434.731 400.69C432.693 402.226 429.318 403.613 426.937 404.519C424.603 405.407 420.651 407.375 418.22 407.267C416.499 407.191 415.837 406.267 413.949 406.414C411.149 406.634 408.725 408.503 405.756 406.959C400.126 404.031 402.894 395.516 406.449 392.103C407.365 391.223 408.395 390.26 409.625 389.831C410.21 389.627 412.656 389.874 412.938 389.568C413.979 388.441 412.679 381.846 412.54 380.594C411.81 374.029 411.015 367.324 410.715 360.729C410.434 354.529 410.121 348.316 409.906 342.113C409.86 340.763 410.46 337.986 409.893 336.805C408.95 334.843 404.813 333.594 403.018 332.681C404.617 348.313 406.967 365.114 401.178 380.004C400.028 382.96 398.738 387.18 395.823 388.825C393.075 390.376 386.605 390.157 383.313 390.341C379.773 390.539 376.307 389.714 374.357 386.398C372.822 383.788 373.742 380.657 376.893 379.519C378.78 378.838 379.147 379.276 380.8 380.086C381.159 380.667 381.41 381.291 381.556 381.959H382.826C384.548 382.726 391.43 383.583 393.322 382.36C395.515 380.944 395.992 377.116 396.927 374.841C398.664 370.615 399.124 367.185 399.754 362.668C400.741 355.597 399.742 347.399 399.76 340.032C399.766 337.958 399.775 335.883 399.777 333.808C399.781 330.675 400.055 330.694 398.263 328.438C395.562 325.038 392.483 321.564 389.592 318.305C391.158 327.826 390.517 337.851 389.895 347.337C389.546 352.667 388.824 358.094 388.492 363.353C388.393 364.933 389.531 369.29 387.691 369.988C385.825 370.697 383.502 367.391 382.748 366.198C378.634 374.389 373.723 382.289 365.235 386.527C360.87 388.706 356.325 389.689 351.562 390.543C347.149 391.336 343.071 392.78 338.72 393.462C329.715 394.871 321.421 395.071 312.36 394.763C303.811 394.473 295.625 396.047 287.104 394.064C283.778 393.291 280.417 391.87 278.144 389.329C276.904 387.943 276.355 385.761 275.103 384.484C274.821 382.83 273.847 382.321 272.178 382.953C271.13 383 270.086 382.966 269.046 382.849C260.499 382.402 251.001 382.901 242.719 380.465C239.575 379.541 236.066 378.018 237.634 374.093C239.005 370.662 242.787 371.704 245.889 372.003C254.899 372.874 263.767 374.463 272.907 375.262C272.613 370.498 272.866 365.637 274.738 361.181C268.398 360.387 261.825 359.189 255.792 357.169C253.929 356.546 252.075 355.897 250.226 355.231C247.18 354.131 247.813 353.847 246.049 355.765C243.832 358.175 242.475 363.202 240.869 366.114C239.061 369.39 237.327 372.63 235.804 376.05C234.362 379.286 233.287 383.622 231.091 386.411C226.259 392.547 215.101 393.079 208.534 390.669C205.317 389.488 204.156 389.302 202.206 386.426C200.07 383.275 199.54 383.091 195.605 382.663C188.499 381.89 181.793 380.111 175.137 377.654C168.104 375.058 160.883 373.035 153.871 370.232C147.307 367.609 140.963 364.97 134.171 362.922C133.365 368.032 136.704 373.796 136.704 379.065C140.656 378.671 144.341 378.325 148.258 377.697C149.655 377.474 158.455 375.504 159.314 376.666C162.893 381.512 146.608 383.792 144.063 384.432C135.906 386.486 127.588 388.394 119.38 389.982C111.001 391.602 102.834 393.215 94.3286 393.506C79.9368 393.998 60.086 393.169 60.773 374.304C61.0426 366.912 64.095 358.89 69.9358 354.069C73.5699 351.069 78.1017 349.42 82.5446 348.063C84.186 347.561 92.8333 346.389 93.0962 345.744C90.6595 344.001 86.4947 343.547 83.6037 342.204C80.8476 340.924 77.9391 340.447 75.1178 339.156C69.4804 336.578 64.0355 333.425 58.8229 330.237C54.6774 327.701 50.486 324.901 46.6695 321.886C43.637 319.491 40.7308 317.188 38.3065 314.45C37.0378 313.018 34.792 311.749 33.7758 310.516C30.2075 306.183 33.9707 297.562 35.4904 292.518C37.7101 285.145 40.6724 277.299 45.0411 270.912C49.0586 265.039 53.5378 261.082 60.7442 259.706C67.3955 258.436 74.0836 258.034 80.8861 257.677C79.7431 253.339 78.134 250.277 78.5423 245.519C78.9275 241.031 81.1988 236.572 82.9813 232.484C86.2953 224.886 89.4219 217.45 93.9543 210.454C96.4453 206.61 99.2434 202.96 101.963 199.276C102.401 198.683 105.127 195.966 105.022 195.2C104.919 194.44 102.182 192.124 101.763 191.593C98.9483 188.029 97.0027 184.19 100.308 180.375C102.031 178.386 107.097 174.37 109.535 176.897C112.172 171.581 116.783 167.957 120.374 163.435C124.85 157.797 129.124 152.072 133.314 146.166C137.487 140.286 140.895 133.969 146.425 129.23C152.588 123.949 158.39 124.405 165.959 126.663C166.391 123.75 166.992 124.137 169.816 123.165C171.954 122.429 174.032 121.555 176.134 120.724C178.367 119.839 180.629 119.337 182.912 118.642C185.955 117.717 186.412 118.019 186.906 114.077C187.504 109.315 185.461 104.279 184.144 99.7927C183.493 97.5792 183.041 94.8238 181.578 93.3347C180.255 91.9881 177.908 91.3749 176.46 89.8859C163.987 77.0574 163.79 49.6669 177.077 37.7443C179.659 35.4268 181.789 32.3091 185.004 30.7443C188.533 29.0259 193.188 27.6363 197.075 26.8265C205.088 25.1583 214.074 25.6878 220.407 31.3072C223.531 34.0785 225.436 38.4834 226.501 42.4183C227.518 46.1768 227.3 52.5297 223.444 46.721C221.012 43.0574 218.9 39.3209 214.783 37.5086C211.105 35.8896 206.614 35.0154 202.606 35.359C193.162 36.1682 185.509 38.935 178.971 45.9089C171.743 53.6198 171.375 65.9306 172.933 75.7357C174.306 72.8356 175.236 68.2435 179.086 67.6897C182.294 67.228 187.351 71.3149 185.629 74.8332C177.817 72.8463 175.532 84.6332 182.288 85.343C184.333 85.5577 186.923 81.9253 188.806 82.7712C192.328 84.3524 187.608 89.8011 186.678 91.5953C186.183 91.8988 185.689 92.2022 185.194 92.5063C185.681 93.6353 186.173 94.7627 186.67 95.8879C187.272 97.3227 187.845 98.7608 188.374 100.224C189.662 103.786 190.997 107.459 191.773 111.169C192.561 114.942 192.971 119.348 191.107 122.892C189.058 126.788 187.128 126.309 185.554 122.603C181.434 125.194 177.291 127.956 172.448 128.979C177.527 137.48 184.102 144.789 193.988 147.463C202.367 149.729 212.914 149.646 220.909 145.897C229.205 142.006 233.77 132.912 232.782 123.865C232.462 120.935 230.753 110.757 234.819 118.12C237.049 122.157 237.213 128.707 236.704 133.134C234.272 154.313 212.754 162.237 194.199 157.138C184.681 154.522 177.821 147.521 172.715 139.279C171.524 137.357 170.434 135.373 169.37 133.379C168.944 132.582 168.57 131.47 168.002 130.771C165.778 128.032 167.963 129.558 165.602 129.215C161.947 128.685 156.197 131.477 153.483 133.689C146.12 139.691 142.042 149.292 136.391 156.857C130.375 164.91 122.734 172.077 115.069 178.502C123.739 187.362 132.409 196.222 141.079 205.081C142.87 203.103 146.274 198.583 146.751 195.938C147.03 194.388 145.776 189.286 149.631 191.557C152.234 193.09 153.221 199.653 154.033 202.338C155.287 206.484 157.399 210.389 158.764 214.493C161.295 222.107 164.415 229.654 167.008 237.323C168.063 240.441 171.07 244.311 168.181 246.951C163.789 250.962 162.484 243.065 161.321 240.048C159.702 242.294 159.912 245.936 159.077 248.556C158.567 250.156 157.015 252.647 157.066 254.224C157.154 256.92 159.607 257.722 161.818 259.229C165.93 262.032 170.151 264.768 173.918 268.033C175.49 269.395 176.936 270.772 178.083 272.524C179.084 274.054 179.385 277.502 180.492 278.567C181.94 279.958 187.291 278.988 190.117 279.291C194.836 279.798 199.618 281.472 204.199 282.675C212.305 284.803 220.643 287.868 229.133 289.005C237.47 290.121 245.294 289.567 253.604 288.08C258.143 287.267 263.018 286.296 267.16 284.118C271.931 281.61 276.162 277.598 280.618 274.568C282.612 273.212 284.653 271.93 286.692 270.644C289.418 268.926 288.705 269.298 288.882 266.569C289.088 263.409 290.41 257.376 288.295 254.564C287.411 253.39 284.701 252.532 283.425 251.678C281.57 250.435 279.907 248.992 277.918 247.992C275.748 246.901 275.684 247.765 274.677 245.088C273.762 242.657 273.158 240.111 272.318 237.654C268.474 226.418 267.481 215.007 265.889 203.275C265.148 197.826 263.333 190.411 265.389 185.102C268.248 177.719 270.641 188.044 271.244 190.691C273.973 186.026 275.542 180.839 278.381 176.234C280.037 173.549 280.847 172.177 281.78 169.235C282.157 168.044 282.309 167.054 283.107 166.065C284.797 163.972 285.047 165.165 286.803 165.113C292.33 164.951 297.761 165.093 303.293 165.349C306.35 165.49 309.407 165.565 312.486 165.553C313.986 165.548 315.504 165.475 317.002 165.561C317.81 165.552 318.614 165.612 319.413 165.741C321.064 166.509 321.694 165.847 321.304 163.753C322.741 160.754 322.645 155.969 323.153 152.697C323.665 149.404 324.14 146.105 324.568 142.799C324.797 141.032 326.717 134.364 325.698 132.912C324.688 131.473 319.425 131.796 317.868 131.537C307.517 129.821 297.888 125.565 288.206 122.078C283.439 120.362 278.914 118.044 274.342 115.939C271.962 114.843 269.713 112.585 267.204 111.882C264.039 110.995 259.836 112.413 256.681 112.947C250.669 113.965 244.869 114.856 238.769 115.187C236.614 115.304 232.514 115.907 230.57 114.429C226.664 111.462 231.111 109.726 233.664 109.351C244.956 107.695 256.214 106.742 267.593 106.051C268.126 106.018 270.081 105.622 270.731 105.827C272.213 106.294 271.615 106.835 272.503 107.317C274.148 108.208 276.025 108.865 278.112 109.418C284.071 110.997 290.072 113.646 296.051 115.728C306.809 119.474 319.663 125.446 330.422 124.396C333.077 124.137 335.261 123.806 338.037 124.074C341.288 124.389 343.185 126.053 345.683 126.536C349.03 127.184 353.816 126.697 357.339 126.822C360.698 126.94 364.059 127.096 367.419 127.096C364.468 121.176 362.671 115.617 361.013 109.259C360.108 105.792 358.747 102.643 359.337 98.9908C359.615 97.2673 360.306 95.6477 361.058 94.0908C362.195 91.7406 362.518 92.2322 362.921 89.6293C363.476 86.0471 362.68 82.27 363.116 78.677C363.564 74.9897 366.357 71.7031 366.668 68.178C366.834 66.3024 365.782 64.7715 366.097 62.7484C366.378 60.939 367.452 59.0419 368.417 57.5184C370.663 53.9684 373.399 51.9555 377.195 50.5094C380.246 49.347 384.141 48.2807 387.224 50.163C390.37 52.0832 390.143 55.948 391.65 58.7679C394.891 64.8314 402.369 70.2502 408.33 73.347C413.806 76.1917 419.705 77.9887 425.576 79.844C429.15 80.9731 432.824 81.7783 436.336 83.0685C438.863 83.9975 442.986 86.2506 445.56 84.8819C447.804 83.689 450.42 80.0485 452.641 78.3583C455.239 76.381 458.704 74.4512 461.975 76.1736C465.246 77.8955 464.977 84.2428 467.521 85.4363C468.408 85.8522 471.04 84.6338 472.249 84.8259C474.201 85.1356 475.545 86.341 476.715 87.8249C481.086 93.3703 482.439 102.166 482.63 109.002C482.726 112.417 482.643 116.663 480.553 119.562C478.115 122.944 473.501 123.028 470.371 125.407C467.869 127.31 466.095 130.422 463.555 132.45C461.99 133.7 461.386 132.74 460.738 134.688C460.316 135.955 461.169 138.427 461.42 139.652C462.976 147.215 465.89 154.19 468.655 161.394C469.958 164.788 471.063 168.183 471.658 171.781C472.047 174.141 471.598 176.205 471.786 178.476C471.92 180.093 472.609 181.489 472.458 183.147C472.136 186.658 470.225 189.76 469.01 192.848C467.624 196.368 469.528 202.465 470.923 206.106C474.267 214.829 478.97 223.642 483.148 232.023C487.253 240.256 490.306 249.024 495.087 256.933C499.731 264.614 505.195 272.135 510.479 279.399C513.418 283.44 516.537 287.284 519.201 291.522C519.783 292.449 523.758 300.135 524.789 299.869C523.525 286.456 524.803 272.507 525.368 259.103C526.075 242.324 523.935 227.126 519.202 211.11C518.096 207.365 517.11 203.534 516.332 199.708C515.787 197.029 514.249 194.827 518.025 195.998C524.278 197.937 529.781 209.714 532.96 214.84C540.079 226.321 546.026 241.632 546.824 255.099C547.607 268.316 546.932 280.963 545.276 293.986C544.459 300.411 543.139 307.573 541.121 313.717C540.084 316.878 538.838 320.152 537.456 323.18C536.872 324.458 535.591 325.903 535.37 327.307C535.02 329.535 536.656 332.542 537.066 334.742C538.404 341.942 538.711 349.404 538.255 356.711C538.011 360.63 537.469 364.134 536.187 367.82C534.554 372.515 535.313 376.102 535.992 380.942C536.72 386.122 537.416 397.896 532.018 400.839C531.637 400.8 531.254 400.76 530.873 400.721C529.908 399.612 529.052 399.678 528.304 400.919C526.908 401.374 525.544 402.544 524.074 403.047C520.661 404.217 516.979 404.288 513.42 404.801C506.453 405.808 499.51 407.583 492.666 407.798C484.562 408.052 476.107 407.735 468.183 406.318C466.545 406.024 464.631 405.25 462.993 405.101C460.77 404.899 459.209 406.374 456.914 406.027C453.357 405.49 451.11 401.734 450.877 398.657C450.136 388.85 455.589 384.353 464.501 382.611C458.743 374.386 452.113 367.638 450.581 357.074C449.072 346.681 452.343 334.652 458.284 326.325C463.987 318.332 473.718 312.988 483.753 315.016C488.41 315.957 510.383 322.43 506.135 329.771C505.194 326.413 499.401 327.063 496.602 326.578C491.959 325.773 487.317 324.56 482.606 324.81C473.341 325.301 464.386 330.769 459.899 339.047C454.727 348.589 457.087 358.113 463.314 366.26C469.008 373.71 474.877 381.537 482.534 386.916C481.054 389.264 481.589 390.001 478.649 389.58C476.63 389.292 474.742 387.721 472.702 387.33C468.471 386.52 461.813 389.978 459.199 393.437C457.654 395.48 457.711 396.49 460.559 397.748C462.66 398.677 465.969 398.197 468.227 398.398C473.841 398.898 479.564 399.066 485.197 399.046C494.948 399.01 504.016 397.449 513.666 396.439C517.943 395.991 522.416 396.507 526.6 394.937C532.268 392.811 530.88 386.564 530.145 381.505C529.417 376.493 530.158 372.605 530.948 367.642C531.29 365.486 531.929 362.997 531.476 360.827C530.939 358.249 529.976 357.108 530.098 354.233C530.536 344.001 529.249 333.225 526.531 323.349C520.627 301.899 506.211 284.971 494.188 266.74C490.792 261.591 487.222 256.711 484.519 251.135C481.958 245.852 480.194 240.264 477.651 234.966C472.046 223.289 466.729 211.261 463.453 198.701C459.741 200.159 455.742 202.303 451.762 202.817C447.254 203.399 442.434 199.767 439.591 196.568C433.106 189.274 431.627 179.381 432.112 169.981C432.255 167.198 432.429 164.394 432.928 161.648C433.253 159.867 435.353 155.554 434.875 153.894C434.362 152.117 431.377 150.572 430.461 148.813C429.293 146.573 429.159 143.689 429.221 141.218C429.279 138.962 430.527 127.917 434.112 132.431C436.165 135.018 433.164 144.769 435.248 146.097C437.123 147.291 439.706 145.832 441.65 148.562C443.75 151.512 442.625 155.149 441.889 158.291C440.367 164.788 438.938 171.805 438.977 178.478C439.011 184.554 440.1 192.236 446.755 194.694C450.117 195.936 452.67 195.082 455.177 192.769C455.752 192.109 456.338 191.46 456.936 190.821C457.485 189.88 458.326 189.763 459.461 190.47C460.301 189.805 461.546 185.205 461.967 184.177C467.121 171.575 458.995 157.106 456.015 144.742C454.193 137.179 452.604 129.593 456.293 122.294C456.89 121.112 458.535 120.086 457.548 118.39C457.288 117.944 454.805 117.735 454.217 117.217C452.301 115.53 452.701 112.386 452.701 110.134C448.271 111.497 446.994 108.058 447.57 103.843C444.266 104.366 441.971 105.374 440.747 101.56C439.663 98.1771 441.301 94.7277 442.388 91.5755C427.099 89.9407 410.586 87.8459 398.402 77.3202C395.397 74.7247 392.899 71.4578 390.817 68.0734C390.441 67.4614 388.669 63.1531 388.082 62.9282C386.337 62.2596 384.872 65.6661 383.322 66.5098C381.943 67.2591 379.983 67.6722 378.452 68.1288C377.01 68.5589 371.929 68.6447 371.028 69.3913C368.775 71.2584 368.952 82.0524 368.935 84.5575C368.874 93.1855 370.804 101.784 374.374 109.639C377.736 117.037 382.881 127.212 389.606 132.053C391.305 133.277 392.835 133.912 394.988 133.811C396.527 133.739 398.052 132.664 399.654 133.223C403.708 134.638 402.258 137.45 399.141 138.779C390.234 142.58 382.727 134.224 377.576 128.386C376.068 135.312 383.062 143.508 386.763 149.159C389.12 152.76 391.452 156.365 393.695 160.04C395.324 162.709 398.526 167.638 392.839 165.576C390.095 179.943 382.565 192.507 378.72 206.467C374.772 220.798 371.331 237.162 371.331 252.087C374.337 249.999 375.853 240.486 379.896 247.767C380.333 248.555 380.196 249.858 380.773 250.547C381.57 251.499 382.53 251.234 383.752 251.913C385.689 252.988 386.938 255.132 385.207 256.992C387.437 256.474 389.773 256.738 390.254 259.37C390.523 260.847 388.355 267.69 386.738 268.249C381.806 269.952 376.338 260.129 375.002 257.005C371.922 260.09 368.372 262.462 365.532 257.473C363.416 253.754 364.644 248.129 364.943 244.081C365.544 235.926 366.329 227.972 367.509 219.897C369.72 204.753 375.332 191.285 382.226 177.654C384.124 173.902 386.227 170.062 387.923 166.223C390.479 160.431 386.479 161.798 382.568 162.639C374.907 164.287 366.885 165.566 359.144 166.15C355.103 166.454 349.929 166.636 346.046 167.801C343.316 168.62 343.784 168.054 342.688 170.972C342.197 172.277 341.644 173.665 340.779 174.783C336.368 180.486 324.942 179.532 318.632 179.107C319.015 176.702 319.392 174.295 319.789 171.893C314.931 173.031 309.162 173.824 304.16 173.766C301.466 173.735 298.602 173.326 295.915 173.103C293.935 172.938 290.179 171.537 288.315 172.082C286.154 172.714 282.885 180.511 281.649 183.025C279.329 187.747 275.182 192.992 273.718 197.963C272.42 202.37 275.069 209.974 275.901 214.361C277.103 220.703 278.199 227.056 280.215 233.205C281.676 237.663 283.36 243.809 287.846 246.033C292.317 248.249 295.529 249.496 300.367 249.045C308.887 248.25 317.952 249.555 326.363 251.207C335.024 252.909 342.956 253.675 351.18 256.707C369.835 263.586 381.714 284.777 374.681 304.189C370.635 315.355 363.971 323.653 354.195 330.56C349.213 334.08 343.328 336.935 337.866 339.648C335.359 340.893 332.894 342.404 330.338 343.511C328.471 344.32 325.261 346.181 323.232 346.385C325.484 347.454 327.477 346.453 329.82 346.121C333.135 345.65 336.521 345.55 339.848 345.139C345.027 344.5 350.129 344.017 355.31 343.376C359.732 342.828 364.721 342.634 369.116 343.264C371.239 343.569 374.434 344.17 376.325 345.191C377.812 345.993 379.175 347.842 380.774 348.758C382.533 341.553 381.71 332.67 381.792 325.266C381.86 319.222 382.13 313.311 382.7 307.294C383.339 300.566 379.213 292.914 377.689 286.323C376.264 280.155 372.465 272.338 373.863 265.9C375.626 257.785 380.241 272.364 380.875 274.448C382.862 280.97 385.168 287.337 387.369 293.782C389.987 301.448 392.625 308.877 396.439 316.061C399.613 322.04 403.26 329.053 409.782 331.969C409.244 323.177 408.646 315.036 404.983 306.931C401.509 299.244 396.211 292.408 393.895 284.172C392.745 280.079 392.576 275.893 392.519 271.666C392.48 268.822 392.611 264.998 395.669 268.065C398.093 270.497 398.564 278.253 399.626 281.527C400.137 283.103 400.845 284.55 401.41 286.082C401.664 286.772 403.376 290.135 403.376 290.586C405.142 295.901 409.045 300.999 411.788 305.89Z" fill="#0A0D14"/>
<path fill-rule="evenodd" clip-rule="evenodd" d="M224.556 112.132C224.725 114.19 225.921 119.526 224.389 121.155C222.357 123.317 221.394 120.536 220.516 118.344C218.679 113.764 217.767 104.893 221.395 101.076C225.183 97.0897 232.668 96.9823 236.71 93.0125C238.333 91.4178 238.177 91.7506 238.036 89.2574C237.956 87.8497 237.043 85.9792 236.602 84.7139C235.455 81.4261 234.197 78.1779 232.998 74.9094C230.901 75.8627 227.885 78.8035 225.82 76.3385C223.911 74.0594 227.087 70.3252 229.298 69.659C228.144 67.1403 222.703 67.606 221.667 63.9062C220.766 60.6908 223.353 61.9685 223.919 60.7021C224.585 59.2119 223.221 57.1973 223.923 55.8241C226.359 51.0563 229.057 59.8228 230.27 61.3876C232.527 64.2978 236.459 64.9336 236.806 69.3357C237.019 72.046 236.815 73.3062 237.934 75.9678C238.964 78.4181 240.189 80.7678 241.053 83.2893C242.354 87.0885 244.36 94.0025 241.818 97.6814C239.673 100.784 234.466 103.15 231.08 104.477C229.385 105.141 227.033 105.545 225.662 106.839C223.871 108.526 224.428 109.563 224.556 112.132Z" fill="#0A0D14"/>
<path fill-rule="evenodd" clip-rule="evenodd" d="M400.482 227.015C400.096 226.409 399.709 225.802 399.322 225.194C396.643 228.05 393.675 229.223 390.967 225.596C388.178 221.862 389.226 216.262 390.31 212.184C390.868 210.085 393.691 201.81 395.499 208.114C395.897 209.505 394.563 212.603 394.322 213.965C393.848 216.637 393.474 219.199 393.808 221.92C396.949 219.115 398.488 212.003 401.676 219.388C402.832 222.066 402.959 226.476 406.037 222.409C407.68 220.236 407.785 216.226 408.554 213.667C413.801 214.919 412.845 222.66 411.093 226.431C408.304 232.436 404.51 230.503 400.482 227.015Z" fill="#0A0D14"/>
<path fill-rule="evenodd" clip-rule="evenodd" d="M418.852 92.2998C420.719 95.4051 417.188 101.084 416.549 104.272C419.675 103.911 427.411 96.3878 429.589 97.6282C434.122 100.21 424.546 109.213 422.707 110.532C408.003 121.076 410.654 90.5768 418.852 92.2998Z" fill="#0A0D14"/>
<path fill-rule="evenodd" clip-rule="evenodd" d="M400.414 126.88C405.907 125.354 413.315 135.191 409.751 140.062C407.195 143.556 404.037 141.558 403.236 138.482C402.828 136.913 403.19 135.023 402.656 133.273C401.999 131.119 401.118 129.021 400.414 126.88Z" fill="#0A0D14"/>
<path fill-rule="evenodd" clip-rule="evenodd" d="M231.46 84.4819C235.638 87.985 227.102 96.5254 222.823 89.838C221.646 87.9986 221.432 86.3197 223.177 85.6404C224.058 85.2979 226.136 86.4197 227.38 86.2213C228.743 86.0038 230.225 85.047 231.46 84.4819Z" fill="#0A0D14"/>
<path fill-rule="evenodd" clip-rule="evenodd" d="M217.105 70.4741C215.484 68.4567 210.928 56.047 216.574 58.8109C219.409 60.1988 221.751 70.8075 217.105 70.4741Z" fill="#0A0D14"/>
<path fill-rule="evenodd" clip-rule="evenodd" d="M403.498 337.38C403.338 335.814 403.178 334.247 403.018 332.681C405.102 333.741 409.284 334.788 410.01 337.162C411.373 341.622 405.044 338.055 403.498 337.38Z" fill="#0A0D14"/>
<path fill-rule="evenodd" clip-rule="evenodd" d="M464.006 148.486C462.764 146.812 458.903 132.855 462.253 133.174C462.839 138.237 462.96 143.496 464.006 148.486Z" fill="#0A0D14"/>
<path fill-rule="evenodd" clip-rule="evenodd" d="M411.788 305.89C409.045 300.999 405.141 295.901 403.376 290.586C407.514 293.929 410.747 300.759 411.788 305.89Z" fill="#0A0D14"/>
<path fill-rule="evenodd" clip-rule="evenodd" d="M524.288 294.552C524.455 296.325 524.622 298.097 524.789 299.869C522.304 300.509 524.136 295.137 524.288 294.552Z" fill="#0A0D14"/>
<path fill-rule="evenodd" clip-rule="evenodd" d="M403.382 290.594C402.205 289.316 401.702 287.745 401.41 286.082C402.067 287.585 402.724 289.09 403.382 290.594Z" fill="#0A0D14"/>
<path fill-rule="evenodd" clip-rule="evenodd" d="M417.608 370.839C417.652 369.262 417.696 367.685 417.739 366.112C417.696 367.689 417.652 369.264 417.608 370.839Z" fill="#0A0D14"/>
<path fill-rule="evenodd" clip-rule="evenodd" d="M231.761 114.928C232.813 115.058 233.866 115.189 234.919 115.319C234.088 115.708 232.131 116.224 231.761 114.928Z" fill="#0A0D14"/>
<path fill-rule="evenodd" clip-rule="evenodd" d="M441.674 387.393C442.769 387.228 443.868 386.852 444.944 387.456C443.852 387.435 442.763 387.414 441.674 387.393Z" fill="#0A0D14"/>
<path fill-rule="evenodd" clip-rule="evenodd" d="M410.379 351.762C410.394 352.93 410.408 354.098 410.421 355.262C410.406 354.093 410.393 352.928 410.379 351.762Z" fill="#0A0D14"/>
<path fill-rule="evenodd" clip-rule="evenodd" d="M433.009 333.585C432.94 334.832 432.871 336.077 432.803 337.32C432.872 336.074 432.94 334.83 433.009 333.585Z" fill="#0A0D14"/>
<path fill-rule="evenodd" clip-rule="evenodd" d="M418.109 338.461C418.05 337.377 417.991 336.293 417.932 335.211C417.991 336.296 418.051 337.379 418.109 338.461Z" fill="#0A0D14"/>
<path fill-rule="evenodd" clip-rule="evenodd" d="M450.655 348.023C450.596 348.988 450.537 349.954 450.479 350.917C450.537 349.951 450.596 348.986 450.655 348.023Z" fill="#0A0D14"/>
<path fill-rule="evenodd" clip-rule="evenodd" d="M254.01 372.411C252.944 372.947 251.879 373 250.817 372.405C251.882 372.407 252.946 372.409 254.01 372.411Z" fill="#0A0D14"/>
<path fill-rule="evenodd" clip-rule="evenodd" d="M363.059 80.7007C363.073 81.6551 363.089 82.6096 363.103 83.5601C363.087 82.6045 363.073 81.6529 363.059 80.7007Z" fill="#0A0D14"/>
<path fill-rule="evenodd" clip-rule="evenodd" d="M257.259 106.742C256.167 106.825 255.076 106.907 253.985 106.989C255.076 106.907 256.168 106.825 257.259 106.742Z" fill="#0A0D14"/>
<path fill-rule="evenodd" clip-rule="evenodd" d="M482.639 110.415C482.633 109.473 482.628 108.531 482.623 107.591C483.124 108.531 483.133 109.472 482.639 110.415Z" fill="#0A0D14"/>
<path fill-rule="evenodd" clip-rule="evenodd" d="M224.556 112.131C224.506 111.131 224.457 110.13 224.407 109.131C224.458 110.133 224.507 111.132 224.556 112.131Z" fill="#0A0D14"/>
<path fill-rule="evenodd" clip-rule="evenodd" d="M492.666 407.798C493.403 407.803 494.14 407.808 494.87 407.813C494.131 407.808 493.398 407.803 492.666 407.798Z" fill="#0A0D14"/>
<path fill-rule="evenodd" clip-rule="evenodd" d="M298.206 395.347C298.831 395.346 299.456 395.345 300.073 395.346C299.446 395.346 298.826 395.347 298.206 395.347Z" fill="#0A0D14"/>
<path fill-rule="evenodd" clip-rule="evenodd" d="M438.062 393.696C438.12 392.917 438.178 392.138 438.236 391.362C438.178 392.142 438.12 392.919 438.062 393.696Z" fill="#0A0D14"/>
<path fill-rule="evenodd" clip-rule="evenodd" d="M335.487 123.834C334.554 123.825 333.621 123.817 332.688 123.809C333.626 123.268 334.557 123.423 335.487 123.834Z" fill="#0A0D14"/>
<path fill-rule="evenodd" clip-rule="evenodd" d="M211.012 26.4237C210.072 26.3938 209.078 26.8826 208.211 26.1389C209.145 26.2339 210.078 26.3288 211.012 26.4237Z" fill="#0A0D14"/>
<path fill-rule="evenodd" clip-rule="evenodd" d="M185.616 118.396C184.714 118.478 183.813 118.561 182.912 118.642C183.814 118.56 184.714 118.478 185.616 118.396Z" fill="#0A0D14"/>
<path fill-rule="evenodd" clip-rule="evenodd" d="M242.393 371.604C241.444 371.703 240.494 371.802 239.546 371.9C240.495 371.802 241.444 371.703 242.393 371.604Z" fill="#0A0D14"/>
<path fill-rule="evenodd" clip-rule="evenodd" d="M266.025 106.172C265.099 106.192 264.173 106.212 263.248 106.231C264.166 105.865 265.085 105.519 266.025 106.172Z" fill="#0A0D14"/>
<path fill-rule="evenodd" clip-rule="evenodd" d="M417.574 358.828C417.569 358.027 417.564 357.226 417.559 356.427C417.564 357.229 417.569 358.028 417.574 358.828Z" fill="#0A0D14"/>
<path fill-rule="evenodd" clip-rule="evenodd" d="M524.628 290.925C524.528 291.893 524.428 292.861 524.329 293.829C524.428 292.861 524.528 291.893 524.628 290.925Z" fill="#0A0D14"/>
<path fill-rule="evenodd" clip-rule="evenodd" d="M404.502 353.313C404.433 352.489 404.364 351.665 404.296 350.843C404.364 351.668 404.434 352.491 404.502 353.313Z" fill="#0A0D14"/>
<path fill-rule="evenodd" clip-rule="evenodd" d="M93.0961 345.744C92.9267 346.565 92.3263 346.727 91.2949 346.228L93.0961 345.744Z" fill="#0A0D14"/>
<path fill-rule="evenodd" clip-rule="evenodd" d="M439.063 346.109C439.007 345.393 438.953 344.677 438.898 343.963C438.954 344.679 439.008 345.394 439.063 346.109Z" fill="#0A0D14"/>
<path fill-rule="evenodd" clip-rule="evenodd" d="M245.089 107.897C244.31 108.002 243.531 108.108 242.752 108.213C243.531 108.108 244.31 108.002 245.089 107.897Z" fill="#0A0D14"/>
<path fill-rule="evenodd" clip-rule="evenodd" d="M409.91 340.007C409.909 340.71 409.908 341.413 409.906 342.113C409.908 341.409 409.909 340.708 409.91 340.007Z" fill="#0A0D14"/>
<path fill-rule="evenodd" clip-rule="evenodd" d="M362.919 87.6377C362.92 88.3028 362.92 88.9674 362.921 89.6291C362.92 88.9634 362.92 88.3006 362.919 87.6377Z" fill="#0A0D14"/>
<path fill-rule="evenodd" clip-rule="evenodd" d="M78.7735 243.419C78.6965 244.119 78.6194 244.821 78.543 245.519C78.62 244.817 78.6965 244.118 78.7735 243.419Z" fill="#0A0D14"/>
<path fill-rule="evenodd" clip-rule="evenodd" d="M545.455 291.595C545.414 290.935 545.372 290.275 545.331 289.618C545.372 290.279 545.414 290.937 545.455 291.595Z" fill="#0A0D14"/>
<path fill-rule="evenodd" clip-rule="evenodd" d="M143.097 378.706C142.292 378.693 141.487 378.681 140.683 378.668C141.497 378.111 142.3 378.231 143.097 378.706Z" fill="#0A0D14"/>
<path fill-rule="evenodd" clip-rule="evenodd" d="M236.825 70.3267C236.812 69.665 236.799 69.0032 236.786 68.3438C237.2 68.9987 237.332 69.6565 236.825 70.3267Z" fill="#0A0D14"/>
<path fill-rule="evenodd" clip-rule="evenodd" d="M172.562 61.9339C172.618 61.2812 172.674 60.6285 172.729 59.9797C172.673 60.6336 172.618 61.2834 172.562 61.9339Z" fill="#0A0D14"/>
<path fill-rule="evenodd" clip-rule="evenodd" d="M438.589 290.415C438.561 289.696 438.532 288.976 438.506 288.258C438.534 288.978 438.561 289.697 438.589 290.415Z" fill="#0A0D14"/>
<path fill-rule="evenodd" clip-rule="evenodd" d="M433.407 327.579C433.387 328.258 433.368 328.936 433.347 329.61C433.366 328.931 433.387 328.255 433.407 327.579Z" fill="#0A0D14"/>
<path fill-rule="evenodd" clip-rule="evenodd" d="M340.767 393.009C341.271 393.008 341.775 393.007 342.274 393.007C341.768 393.009 341.267 393.009 340.767 393.009Z" fill="#0A0D14"/>
<path fill-rule="evenodd" clip-rule="evenodd" d="M95.3457 393.353C95.8492 393.366 96.3522 393.38 96.8495 393.394C96.3443 393.38 95.8447 393.367 95.3457 393.353Z" fill="#0A0D14"/>
<path fill-rule="evenodd" clip-rule="evenodd" d="M399.777 333.808C394.868 330.024 390.588 324.364 389.592 318.305C391.703 320.685 393.477 323.34 395.589 325.718C396.428 326.662 397.457 327.476 398.263 328.438C400.1 330.632 399.777 330.729 399.777 333.808Z" fill="#0A0D14"/>
<path fill-rule="evenodd" clip-rule="evenodd" d="M382.532 308.226C380.176 302.812 378.13 296.243 378.541 290.269C380.167 295.693 383.938 302.506 382.532 308.226Z" fill="#0A0D14"/>
<path fill-rule="evenodd" clip-rule="evenodd" d="M390.436 340.068C390.397 341.64 390.356 343.212 390.318 344.78C390.359 343.206 390.398 341.637 390.436 340.068Z" fill="#0A0D14"/>
<path fill-rule="evenodd" clip-rule="evenodd" d="M78.8574 382.797C80.4677 382.893 82.0786 382.988 83.6889 383.084C82.0712 383.105 80.432 383.496 78.8574 382.797Z" fill="#0A0D14"/>
<path fill-rule="evenodd" clip-rule="evenodd" d="M390.428 334.875C390.433 336.215 390.439 337.556 390.445 338.893C390.439 337.551 390.433 336.213 390.428 334.875Z" fill="#0A0D14"/>
<path fill-rule="evenodd" clip-rule="evenodd" d="M324.264 179.445C323.357 179.398 322.45 179.351 321.551 179.304C322.46 179.351 323.362 179.398 324.264 179.445Z" fill="#0A0D14"/>
<path fill-rule="evenodd" clip-rule="evenodd" d="M339.011 146.102C339.008 145.014 339.004 143.926 339.001 142.841C339.004 143.929 339.008 145.016 339.011 146.102Z" fill="#0A0D14"/>
<path fill-rule="evenodd" clip-rule="evenodd" d="M319.542 173.391C319.501 172.625 319.092 172.24 318.316 172.235C319.874 171.395 320.283 171.781 319.542 173.391Z" fill="#0A0D14"/>
<path fill-rule="evenodd" clip-rule="evenodd" d="M365.732 233.91C365.793 232.942 365.854 231.974 365.915 231.008C365.854 231.976 365.793 232.943 365.732 233.91Z" fill="#0A0D14"/>
<path fill-rule="evenodd" clip-rule="evenodd" d="M101.721 383.481C102.807 383.406 103.893 383.331 104.98 383.255C103.893 383.331 102.807 383.406 101.721 383.481Z" fill="#0A0D14"/>
<path fill-rule="evenodd" clip-rule="evenodd" d="M329.89 252.058L333.122 252.036C332.044 252.044 330.967 252.051 329.89 252.058Z" fill="#0A0D14"/>
<path fill-rule="evenodd" clip-rule="evenodd" d="M360.745 134.096C359.994 134.102 359.242 134.109 358.497 134.114C359.252 134.108 359.998 134.102 360.745 134.096Z" fill="#0A0D14"/>
<path fill-rule="evenodd" clip-rule="evenodd" d="M517.451 396.033C518.394 396.028 519.336 396.024 520.278 396.021C519.338 396.612 518.396 396.597 517.451 396.033Z" fill="#0A0D14"/>
<path fill-rule="evenodd" clip-rule="evenodd" d="M121.805 265.889C121.166 265.907 120.527 265.925 119.895 265.943C120.536 265.925 121.17 265.907 121.805 265.889Z" fill="#0A0D14"/>
<path fill-rule="evenodd" clip-rule="evenodd" d="M461.173 125.049C461.778 125.631 460.983 126.969 460.263 126.508C460.566 126.021 460.87 125.535 461.173 125.049Z" fill="#0A0D14"/>
<path fill-rule="evenodd" clip-rule="evenodd" d="M165.78 324.811C165.807 323.988 165.834 323.164 165.861 322.342C165.834 323.166 165.807 323.989 165.78 324.811Z" fill="#0A0D14"/>
<path fill-rule="evenodd" clip-rule="evenodd" d="M381.793 325.266C381.837 324.407 381.88 323.548 381.923 322.69C381.879 323.55 381.836 324.408 381.793 325.266Z" fill="#0A0D14"/>
<path fill-rule="evenodd" clip-rule="evenodd" d="M532.541 235.743C532.577 236.603 532.613 237.463 532.648 238.32C532.612 237.459 532.576 236.601 532.541 235.743Z" fill="#0A0D14"/>
<path fill-rule="evenodd" clip-rule="evenodd" d="M241.444 333.148C242.409 333.231 243.374 333.313 244.339 333.395C243.374 333.313 242.409 333.231 241.444 333.148Z" fill="#0A0D14"/>
<path fill-rule="evenodd" clip-rule="evenodd" d="M373.793 267.18C373.84 266.326 373.888 265.471 373.935 264.618C373.887 265.473 373.84 266.327 373.793 267.18Z" fill="#0A0D14"/>
<path fill-rule="evenodd" clip-rule="evenodd" d="M206.112 283.433C207.074 283.522 208.036 283.61 208.998 283.698C208.036 283.609 207.074 283.521 206.112 283.433Z" fill="#0A0D14"/>
<path fill-rule="evenodd" clip-rule="evenodd" d="M291.219 358.144C290.599 358.145 289.98 358.145 289.367 358.145C289.989 358.144 290.604 358.144 291.219 358.144Z" fill="#0A0D14"/>
<path fill-rule="evenodd" clip-rule="evenodd" d="M345.851 149.315C345.814 150.114 345.777 150.912 345.741 151.706C345.779 150.907 345.815 150.111 345.851 149.315Z" fill="#0A0D14"/>
<path fill-rule="evenodd" clip-rule="evenodd" d="M359.573 342.99C360.525 342.315 361.451 342.761 362.381 343.053C361.445 343.033 360.509 343.011 359.573 342.99Z" fill="#0A0D14"/>
<path fill-rule="evenodd" clip-rule="evenodd" d="M248.268 114.526C247.642 114.501 247.016 114.475 246.396 114.447C247.025 114.472 247.647 114.499 248.268 114.526Z" fill="#0A0D14"/>
<path fill-rule="evenodd" clip-rule="evenodd" d="M400.043 357.673C399.986 356.878 399.93 356.084 399.874 355.291C399.93 356.087 399.986 356.88 400.043 357.673Z" fill="#0A0D14"/>
<path fill-rule="evenodd" clip-rule="evenodd" d="M348.78 267.939C348.264 267.943 347.748 267.946 347.238 267.951C347.757 267.948 348.269 267.943 348.78 267.939Z" fill="#0A0D14"/>
<path fill-rule="evenodd" clip-rule="evenodd" d="M370.548 296.813C370.548 296.151 370.549 295.487 370.55 294.828C370.549 295.492 370.548 296.153 370.548 296.813Z" fill="#0A0D14"/>
<path fill-rule="evenodd" clip-rule="evenodd" d="M337.531 345.439C338.304 345.339 339.077 345.239 339.849 345.139C339.076 345.239 338.303 345.339 337.531 345.439Z" fill="#0A0D14"/>
<path fill-rule="evenodd" clip-rule="evenodd" d="M304.117 248.976C304.954 248.97 305.791 248.965 306.629 248.96C305.794 249.45 304.957 249.358 304.117 248.976Z" fill="#0A0D14"/>
<path fill-rule="evenodd" clip-rule="evenodd" d="M347.484 167.814C347 167.81 346.517 167.805 346.039 167.801C346.525 167.805 347.004 167.81 347.484 167.814Z" fill="#0A0D14"/>
<path fill-rule="evenodd" clip-rule="evenodd" d="M204.522 290.808C204.023 290.802 203.525 290.795 203.032 290.788C203.533 290.795 204.028 290.802 204.522 290.808Z" fill="#0A0D14"/>
<path fill-rule="evenodd" clip-rule="evenodd" d="M108.143 258.168C108.978 258.177 109.813 258.186 110.649 258.194C109.808 258.665 108.973 258.677 108.143 258.168Z" fill="#0A0D14"/>
<path fill-rule="evenodd" clip-rule="evenodd" d="M532.621 259.547C532.568 260.183 532.515 260.819 532.465 261.452C532.518 260.814 532.569 260.181 532.621 259.547Z" fill="#0A0D14"/>
<path fill-rule="evenodd" clip-rule="evenodd" d="M319.93 361.756C320 361.061 320.072 360.367 320.143 359.675C320.071 360.37 320 361.063 319.93 361.756Z" fill="#0A0D14"/>
<path fill-rule="evenodd" clip-rule="evenodd" d="M184.842 279.014C185.686 279.026 186.53 279.038 187.375 279.05C186.522 279.636 185.682 279.267 184.842 279.014Z" fill="#0A0D14"/>
<path fill-rule="evenodd" clip-rule="evenodd" d="M308.691 379.665C308.766 380.395 308.84 381.124 308.913 381.851C308.839 381.121 308.765 380.393 308.691 379.665Z" fill="#0A0D14"/>
<path fill-rule="evenodd" clip-rule="evenodd" d="M381.806 331.684C381.805 331.003 381.803 330.323 381.803 329.645C381.804 330.327 381.805 331.005 381.806 331.684Z" fill="#0A0D14"/>
<path fill-rule="evenodd" clip-rule="evenodd" d="M84.0889 383.181C84.8835 383.285 85.6782 383.389 86.4723 383.494C85.6776 383.389 84.883 383.285 84.0889 383.181Z" fill="#0A0D14"/>
<path fill-rule="evenodd" clip-rule="evenodd" d="M98.9971 383.501C99.7815 382.861 100.578 383.058 101.377 383.467C100.584 383.479 99.79 383.49 98.9971 383.501Z" fill="#0A0D14"/>
<path fill-rule="evenodd" clip-rule="evenodd" d="M242.348 289.741C243.125 289.646 243.902 289.551 244.678 289.456C243.901 289.551 243.124 289.646 242.348 289.741Z" fill="#0A0D14"/>
<path fill-rule="evenodd" clip-rule="evenodd" d="M328.693 387.105C329.485 386.999 330.277 386.894 331.069 386.788C330.276 386.894 329.485 386.999 328.693 387.105Z" fill="#0A0D14"/>
<path fill-rule="evenodd" clip-rule="evenodd" d="M345.457 154.141C345.422 154.792 345.386 155.443 345.352 156.089C345.387 155.437 345.422 154.789 345.457 154.141Z" fill="#0A0D14"/>
<path fill-rule="evenodd" clip-rule="evenodd" d="M155.256 309.245C155.328 308.555 155.4 307.864 155.472 307.175C155.399 307.867 155.328 308.556 155.256 309.245Z" fill="#0A0D14"/>
<path fill-rule="evenodd" clip-rule="evenodd" d="M339.222 137.316C339.243 136.639 339.264 135.961 339.285 135.287C339.265 135.966 339.243 136.641 339.222 137.316Z" fill="#0A0D14"/>
<path fill-rule="evenodd" clip-rule="evenodd" d="M184.984 301.564C185.056 302.255 185.127 302.947 185.198 303.636C185.127 302.943 185.055 302.254 184.984 301.564Z" fill="#0A0D14"/>
<path fill-rule="evenodd" clip-rule="evenodd" d="M318.042 379.851C318.509 381.217 318.338 384.394 317.013 385.357C314.266 387.355 313.983 383.706 313.438 381.735C311.925 376.268 309.489 370.162 308.868 364.541C308.677 362.817 308.574 359.587 310.86 359.006C313.067 358.445 314.185 361.933 314.946 363.724C317.057 368.695 318.281 374.461 318.042 379.851Z" fill="#0A0D14"/>
<path fill-rule="evenodd" clip-rule="evenodd" d="M318.043 379.851C318.074 379.144 318.106 378.439 318.137 377.736C318.105 378.443 318.074 379.147 318.043 379.851Z" fill="#0A0D14"/>
</svg>
