<svg width="139" height="60" viewBox="0 0 139 60" fill="none" xmlns="http://www.w3.org/2000/svg">
<g clip-path="url(#clip0_913_19911)">
<path d="M31.9082 14.0695C31.9082 11.4236 34.2908 9.36005 37.2 9.36005C40.1093 9.36005 42.4387 11.4236 42.4387 14.0695C42.4387 16.7154 40.1093 18.8322 37.2 18.8322C34.2883 18.8322 31.9082 16.7154 31.9082 14.0695ZM37.7292 22.8555C39.8991 22.8555 41.9095 23.648 41.8563 25.2355L41.1145 42.1694C41.0613 43.5443 38.8382 44.552 36.7747 44.552C35.1871 44.552 33.7591 43.9165 33.6527 42.2226L32.7539 25.9242C32.6475 23.8607 35.2403 22.8555 37.7292 22.8555Z" fill="#CEC22E"/>
<path d="M81.1293 40.5059C81.975 35.5306 82.3472 31.7225 82.3472 28.8639C82.3472 23.6252 80.9723 21.668 78.4302 21.668C75.0956 21.668 73.5612 25.1596 73.5612 35.6394C73.5612 37.2802 73.6676 39.8375 73.6676 41.8504C73.6676 43.0151 72.0269 43.5974 70.4393 43.5974C68.9581 43.5974 67.5301 43.0683 67.5301 42.0631L67.3706 26.699L67.3174 6.71413C67.3174 3.80235 71.285 1.95148 74.1436 1.95148C75.8375 1.95148 77.1592 2.587 77.0528 4.01504L75.9945 18.1789C77.5289 16.2217 79.5392 14.6873 82.7143 14.6873C88.0593 14.6873 90.4394 19.0803 90.4394 27.0712C90.4394 30.7755 89.9634 35.2723 89.0114 40.4603C88.6949 42.0479 86.5781 42.8936 84.5146 42.8936C82.6105 42.8885 80.866 42.0935 81.1293 40.5059Z" fill="#CEC22E"/>
<path d="M117.185 45.9801C115.703 44.9749 115.121 43.4405 115.121 42.0125C115.121 40.3186 115.967 38.8905 117.131 38.8905C117.448 38.8905 117.767 38.9437 118.084 39.1539C121.681 41.2706 126.902 42.2657 128.384 42.2657C130.341 42.2657 131.483 40.5946 131.483 39.7489C131.483 38.7968 130.637 37.8448 127.566 36.8371C121.957 34.9862 118.094 31.4921 118.094 25.8838C118.094 20.4856 121.957 15.8824 128.571 15.8824C130.581 15.8824 133.564 16.0521 136.05 16.9535C137.691 17.589 138.43 19.5994 138.43 21.5566C138.43 23.7265 137.532 25.8432 136.05 25.8432C135.681 25.8432 135.255 25.6837 134.833 25.4204C132.346 23.886 129.576 23.5037 128.092 23.5037C126.082 23.5037 125.024 24.6152 125.024 26.0964C125.024 27.9499 126.771 29.0589 130.05 30.1172C135.924 32.0213 138.517 35.0394 138.517 39.4298C138.517 44.828 133.883 49.0919 128.432 49.0919C125.844 49.0893 120.094 47.9905 117.185 45.9801Z" fill="#CEC22E"/>
<path d="M18.329 23.5822C25.697 21.4857 28.3328 17.8928 28.3328 13.9986C28.3328 12.6668 28.0239 11.4059 27.4011 10.2462C27.434 8.25357 27.4796 3.09087 27.077 1.64258C26.5858 -0.124741 19.6431 4.42269 19.3443 4.61765C18.9443 4.51131 18.529 4.41762 18.1036 4.33154C15.4552 3.69095 12.2826 3.33394 8.56315 3.33394C8.51504 3.33394 8.46693 3.33394 8.41883 3.33394C7.59593 2.79716 1.23054 -1.28186 0.762128 0.406973C0.260796 2.2148 0.453226 9.80821 0.453226 9.80821L0.460822 9.80314L0.470948 9.79555C0.119003 12.3427 0 15.8875 0 20.8248V25.8559C0.240538 45.2635 0.959622 45.9826 7.90737 45.9826C24.7982 45.9826 30.5508 41.5491 30.5508 34.3608C30.5508 28.9145 27.1352 25.5596 18.329 23.5822ZM6.94775 20.9464V19.6297C6.94775 18.3714 7.00851 17.0547 7.18828 15.0773C7.60859 9.74744 8.86445 8.96759 11.0217 8.96759C15.0349 8.96759 17.1314 11.6034 17.1314 15.1963C17.1314 19.0297 14.0753 21.1261 9.94308 21.1261C8.44668 21.1261 7.60859 21.0679 6.94775 20.9464ZM11.3205 41.0731C9.58354 41.0731 8.74545 40.473 8.20614 33.9455C8.02637 31.7883 7.90737 30.2919 7.90737 29.1525C7.90737 28.1954 7.96813 27.5346 8.08714 26.9953C9.16576 26.8763 10.0038 26.7547 11.442 26.7547C16.7744 26.7547 20.3672 29.8108 20.3672 34.062C20.3672 38.617 16.8326 41.0731 11.3205 41.0731Z" fill="#CEC22E"/>
<path d="M104.641 14.5557C97.4988 14.5557 92.9463 19.212 92.9463 27.7321C92.9463 36.1458 97.2861 41.6504 104.322 41.6504C111.678 41.6504 116.281 35.9889 116.281 27.1497C116.284 19.0018 111.784 14.5557 104.641 14.5557ZM107.963 22.0706C107.963 22.0706 110.252 21.5363 110.402 23.9923C110.457 24.9191 110.131 26.2813 108.827 27.1978C108.827 27.1978 105.918 28.598 105.961 24.9216C105.961 24.9216 106.209 22.6453 107.963 22.0706ZM101.859 21.235C101.859 21.235 103.446 19.3766 104.793 21.2882C105.302 22.0098 105.715 23.329 105.115 24.8861C105.115 24.8861 103.454 27.8384 101.659 24.8076C101.656 24.8102 100.725 22.7947 101.859 21.235ZM97.5899 25.6483C97.5621 23.6379 99.5142 23.8809 99.5142 23.8809C101.021 24.2025 101.373 26.0357 101.373 26.0357C101.641 29.0234 99.1117 28.1271 99.1117 28.1271C97.9621 27.489 97.6026 26.4079 97.5899 25.6483ZM107.989 35.1229C106.482 36.9485 104.95 35.6319 104.852 35.5382C104.272 34.9811 104.153 33.4847 101.342 34.533C101.049 34.6418 99.808 34.8976 99.2383 32.9986C99.2383 32.9986 98.2077 30.183 102.046 28.1321C105.723 26.1673 107.594 29.507 107.69 29.7045C107.779 29.8716 109.359 33.4645 107.989 35.1229ZM110.979 31.0262C110.979 31.0262 108.467 31.8769 108.751 28.955C108.751 28.955 109.11 27.1649 110.607 26.8661C110.607 26.8661 112.544 26.6484 112.503 28.6157C112.488 29.3601 112.123 30.416 110.979 31.0262Z" fill="#CEC22E"/>
<path d="M115.238 50.3477C113.557 48.1778 114.732 47.7777 108.354 45.2205C101.976 42.6632 79.6638 45.6281 79.6638 45.6281L65.2974 46.5573C65.0847 46.5573 63.6237 46.6611 63.3882 46.6814L63.0768 46.7017L63.0743 46.7042C61.1171 46.8358 57.9926 46.6535 56.9418 46.1699C53.5389 44.6102 51.9007 42.253 51.7462 38.3765C51.5614 33.7227 53.4426 25.7647 57.1241 23.967C58.2661 23.41 61.1728 22.4124 62.7603 23.2049C63.0236 23.3112 63.2895 23.4176 63.5022 23.4176C64.6669 23.4176 65.3024 21.6174 65.3024 19.6601C65.3024 17.5434 64.5605 15.1608 62.973 14.5278C61.545 13.8923 59.9397 13.4011 58.423 13.629C48.9383 15.0469 44.1807 27.2358 44.1807 37.5005C44.1807 45.9649 48.7281 52.0416 55.3593 53.1582L56.4076 53.2721C59.9169 53.4089 75.5721 52.0416 75.5721 52.0416C75.5721 52.0416 105.257 47.5043 108.409 51.9049C111.562 56.3055 102.621 54.9559 102.621 54.9559C98.1624 56.4827 102.614 59.2907 102.614 59.2907C102.614 59.2907 107.171 61.2707 112.39 58.6146C117.605 55.9586 115.238 50.3477 115.238 50.3477Z" fill="#CEC22E"/>
</g>
<defs>
<clipPath id="clip0_913_19911">
<rect width="138.517" height="60" fill="white"/>
</clipPath>
</defs>
</svg>
