<svg width="139" height="60" viewBox="0 0 139 60" fill="none" xmlns="http://www.w3.org/2000/svg">
<g clip-path="url(#clip0_689_32245)">
<path d="M31.908 14.0696C31.908 11.4237 34.2905 9.36011 37.1998 9.36011C40.109 9.36011 42.4385 11.4237 42.4385 14.0696C42.4385 16.7155 40.109 18.8322 37.1998 18.8322C34.288 18.8322 31.908 16.7155 31.908 14.0696ZM37.729 22.8556C39.8989 22.8556 41.9093 23.6481 41.8561 25.2356L41.1142 42.1695C41.0611 43.5443 38.838 44.5521 36.7744 44.5521C35.1869 44.5521 33.7588 43.9165 33.6525 42.2226L32.7536 25.9243C32.6473 23.8607 35.24 22.8556 37.729 22.8556Z" fill="#F1EDC8"/>
<path d="M81.1297 40.5058C81.9754 35.5305 82.3476 31.7224 82.3476 28.8638C82.3476 23.6251 80.9727 21.6679 78.4306 21.6679C75.096 21.6679 73.5616 25.1595 73.5616 35.6394C73.5616 37.2801 73.668 39.8374 73.668 41.8503C73.668 43.015 72.0272 43.5974 70.4397 43.5974C68.9585 43.5974 67.5304 43.0682 67.5304 42.063L67.3709 26.699L67.3177 6.71407C67.3177 3.80229 71.2854 1.95142 74.144 1.95142C75.8379 1.95142 77.1595 2.58694 77.0532 4.01498L75.9948 18.1789C77.5292 16.2216 79.5396 14.6873 82.7147 14.6873C88.0597 14.6873 90.4398 19.0802 90.4398 27.0712C90.4398 30.7755 89.9638 35.2722 89.0117 40.4603C88.6952 42.0478 86.5785 42.8935 84.5149 42.8935C82.6109 42.8884 80.8664 42.0934 81.1297 40.5058Z" fill="#F1EDC8"/>
<path d="M117.185 45.9799C115.704 44.9747 115.121 43.4404 115.121 42.0123C115.121 40.3184 115.967 38.8904 117.132 38.8904C117.448 38.8904 117.767 38.9436 118.084 39.1537C121.682 41.2705 126.903 42.2655 128.384 42.2655C130.341 42.2655 131.483 40.5944 131.483 39.7488C131.483 38.7967 130.637 37.8447 127.566 36.837C121.958 34.9861 118.094 31.492 118.094 25.8836C118.094 20.4855 121.958 15.8823 128.571 15.8823C130.582 15.8823 133.564 16.052 136.051 16.9533C137.692 17.5889 138.431 19.5993 138.431 21.5565C138.431 23.7264 137.532 25.8431 136.051 25.8431C135.681 25.8431 135.256 25.6836 134.833 25.4203C132.346 23.8859 129.577 23.5036 128.093 23.5036C126.082 23.5036 125.024 24.6151 125.024 26.0963C125.024 27.9497 126.771 29.0587 130.05 30.1171C135.924 32.0212 138.517 35.0393 138.517 39.4297C138.517 44.8279 133.883 49.0917 128.432 49.0917C125.844 49.0892 120.094 47.9903 117.185 45.9799Z" fill="#F1EDC8"/>
<path d="M18.329 23.5822C25.697 21.4857 28.3328 17.8928 28.3328 13.9986C28.3328 12.6668 28.0239 11.4059 27.4011 10.2462C27.434 8.25357 27.4796 3.09087 27.077 1.64258C26.5858 -0.124741 19.6431 4.42269 19.3443 4.61765C18.9443 4.51131 18.529 4.41762 18.1036 4.33154C15.4552 3.69095 12.2826 3.33394 8.56315 3.33394C8.51504 3.33394 8.46693 3.33394 8.41883 3.33394C7.59593 2.79716 1.23054 -1.28186 0.762128 0.406973C0.260796 2.2148 0.453226 9.80821 0.453226 9.80821L0.460822 9.80314L0.470948 9.79555C0.119003 12.3427 0 15.8875 0 20.8248V25.8559C0.240538 45.2635 0.959622 45.9826 7.90737 45.9826C24.7982 45.9826 30.5508 41.5491 30.5508 34.3608C30.5508 28.9145 27.1352 25.5596 18.329 23.5822ZM6.94775 20.9464V19.6297C6.94775 18.3714 7.00851 17.0547 7.18828 15.0773C7.60859 9.74744 8.86445 8.96759 11.0217 8.96759C15.0349 8.96759 17.1314 11.6034 17.1314 15.1963C17.1314 19.0297 14.0753 21.1261 9.94308 21.1261C8.44668 21.1261 7.60859 21.0679 6.94775 20.9464ZM11.3205 41.0731C9.58354 41.0731 8.74545 40.473 8.20614 33.9455C8.02637 31.7883 7.90737 30.2919 7.90737 29.1525C7.90737 28.1954 7.96813 27.5346 8.08714 26.9953C9.16576 26.8763 10.0038 26.7547 11.442 26.7547C16.7744 26.7547 20.3672 29.8108 20.3672 34.062C20.3672 38.617 16.8326 41.0731 11.3205 41.0731Z" fill="#F1EDC8"/>
<path d="M104.641 14.5557C97.4988 14.5557 92.9463 19.212 92.9463 27.7321C92.9463 36.1458 97.2861 41.6504 104.322 41.6504C111.678 41.6504 116.281 35.9889 116.281 27.1497C116.284 19.0018 111.784 14.5557 104.641 14.5557ZM107.963 22.0706C107.963 22.0706 110.252 21.5363 110.402 23.9923C110.457 24.9191 110.131 26.2813 108.827 27.1978C108.827 27.1978 105.918 28.598 105.961 24.9216C105.961 24.9216 106.209 22.6453 107.963 22.0706ZM101.859 21.235C101.859 21.235 103.446 19.3766 104.793 21.2882C105.302 22.0098 105.715 23.329 105.115 24.8861C105.115 24.8861 103.454 27.8384 101.659 24.8076C101.656 24.8102 100.725 22.7947 101.859 21.235ZM97.5899 25.6483C97.5621 23.6379 99.5142 23.8809 99.5142 23.8809C101.021 24.2025 101.373 26.0357 101.373 26.0357C101.641 29.0234 99.1117 28.1271 99.1117 28.1271C97.9621 27.489 97.6026 26.4079 97.5899 25.6483ZM107.989 35.1229C106.482 36.9485 104.95 35.6319 104.852 35.5382C104.272 34.9811 104.153 33.4847 101.342 34.533C101.049 34.6418 99.808 34.8976 99.2383 32.9986C99.2383 32.9986 98.2077 30.183 102.046 28.1321C105.723 26.1673 107.594 29.507 107.69 29.7045C107.779 29.8716 109.359 33.4645 107.989 35.1229ZM110.979 31.0262C110.979 31.0262 108.467 31.8769 108.751 28.955C108.751 28.955 109.11 27.1649 110.607 26.8661C110.607 26.8661 112.544 26.6484 112.503 28.6157C112.488 29.3601 112.123 30.416 110.979 31.0262Z" fill="#F1EDC8"/>
<path d="M115.238 50.3477C113.557 48.1778 114.732 47.7777 108.354 45.2205C101.975 42.6632 79.6637 45.6281 79.6637 45.6281L65.2972 46.5573C65.0845 46.5573 63.6236 46.6611 63.3881 46.6814L63.0767 46.7017L63.0742 46.7042C61.1169 46.8358 57.9925 46.6535 56.9417 46.1699C53.5387 44.6102 51.9005 42.253 51.7461 38.3765C51.5613 33.7227 53.4425 25.7647 57.124 23.967C58.2659 23.41 61.1726 22.4124 62.7602 23.2049C63.0235 23.3112 63.2894 23.4176 63.5021 23.4176C64.6668 23.4176 65.3023 21.6174 65.3023 19.6601C65.3023 17.5434 64.5604 15.1608 62.9729 14.5278C61.5448 13.8923 59.9396 13.4011 58.4229 13.629C48.9381 15.0469 44.1805 27.2358 44.1805 37.5005C44.1805 45.9649 48.728 52.0416 55.3592 53.1582L56.4075 53.2721C59.9168 53.4089 75.572 52.0416 75.572 52.0416C75.572 52.0416 105.257 47.5043 108.409 51.9049C111.562 56.3055 102.621 54.9559 102.621 54.9559C98.1623 56.4827 102.614 59.2907 102.614 59.2907C102.614 59.2907 107.171 61.2707 112.389 58.6146C117.605 55.9586 115.238 50.3477 115.238 50.3477Z" fill="#F1EDC8"/>
</g>
<defs>
<clipPath id="clip0_689_32245">
<rect width="138.517" height="60" fill="white"/>
</clipPath>
</defs>
</svg>
