<svg width="93" height="40" viewBox="0 0 93 40" fill="none" xmlns="http://www.w3.org/2000/svg">
<g clip-path="url(#clip0_844_30989)">
<path d="M21.272 9.3797C21.272 7.61576 22.8604 6.24005 24.7999 6.24005C26.7394 6.24005 28.2923 7.61576 28.2923 9.3797C28.2923 11.1436 26.7394 12.5548 24.7999 12.5548C22.8587 12.5548 21.272 11.1436 21.272 9.3797ZM25.1526 15.237C26.5993 15.237 27.9395 15.7654 27.9041 16.8237L27.4095 28.113C27.374 29.0295 25.892 29.7014 24.5163 29.7014C23.4579 29.7014 22.5059 29.2777 22.435 28.1484L21.8358 17.2829C21.7649 15.9071 23.4934 15.237 25.1526 15.237Z" fill="black"/>
<path d="M54.0864 27.0039C54.6502 23.687 54.8983 21.1483 54.8983 19.2426C54.8983 15.7501 53.9817 14.4453 52.287 14.4453C50.0639 14.4453 49.041 16.773 49.041 23.7596C49.041 24.8534 49.1119 26.5583 49.1119 27.9002C49.1119 28.6767 48.0181 29.0649 46.9597 29.0649C45.9722 29.0649 45.0202 28.7122 45.0202 28.042L44.9139 17.7993L44.8784 4.47606C44.8784 2.53488 47.5235 1.30096 49.4292 1.30096C50.5585 1.30096 51.4396 1.72465 51.3687 2.67667L50.6631 12.1193C51.6861 10.8144 53.0263 9.79153 55.1431 9.79153C58.7064 9.79153 60.2931 12.7202 60.2931 18.0475C60.2931 20.517 59.9758 23.5149 59.3411 26.9735C59.1301 28.0319 57.7189 28.5957 56.3432 28.5957C55.0739 28.5923 53.9108 28.0623 54.0864 27.0039Z" fill="black"/>
<path d="M78.1234 30.6533C77.1359 29.9831 76.7477 28.9602 76.7477 28.0082C76.7477 26.8789 77.3115 25.9269 78.0879 25.9269C78.2989 25.9269 78.5116 25.9624 78.7226 26.1025C81.1213 27.5136 84.6019 28.177 85.5893 28.177C86.8942 28.177 87.6554 27.0629 87.6554 26.4991C87.6554 25.8645 87.0916 25.2298 85.0441 24.558C81.3052 23.324 78.7294 20.9946 78.7294 17.2557C78.7294 13.657 81.3052 10.5882 85.7143 10.5882C87.0545 10.5882 89.043 10.7013 90.7006 11.3022C91.7944 11.7259 92.2873 13.0662 92.2873 14.371C92.2873 15.8176 91.688 17.2287 90.7006 17.2287C90.4541 17.2287 90.1705 17.1224 89.8886 16.9468C88.231 15.9239 86.3844 15.669 85.3952 15.669C84.055 15.669 83.3494 16.4101 83.3494 17.3975C83.3494 18.6331 84.5141 19.3725 86.7 20.078C90.6162 21.3474 92.3447 23.3595 92.3447 26.2865C92.3447 29.8852 89.2557 32.7278 85.6214 32.7278C83.8963 32.7261 80.0629 31.9935 78.1234 30.6533Z" fill="black"/>
<path d="M12.2193 15.7214C17.1314 14.3238 18.8886 11.9285 18.8886 9.33242C18.8886 8.44454 18.6826 7.60392 18.2674 6.83083C18.2893 5.50238 18.3197 2.06058 18.0513 1.09505C17.7238 -0.0831609 13.0954 2.94846 12.8962 3.07844C12.6295 3.00754 12.3527 2.94508 12.0691 2.88769C10.3035 2.46063 8.18842 2.22263 5.70877 2.22263C5.6767 2.22263 5.64462 2.22263 5.61255 2.22263C5.06396 1.86478 0.820362 -0.854571 0.508085 0.271315C0.173864 1.47654 0.302151 6.53881 0.302151 6.53881L0.307215 6.53543L0.313965 6.53036C0.0793354 8.22848 0 10.5917 0 13.8832V17.2373C0.160359 30.1757 0.639748 30.6551 5.27158 30.6551C16.5321 30.6551 20.3672 27.6994 20.3672 22.9072C20.3672 19.2763 18.0901 17.0398 12.2193 15.7214ZM4.63183 13.9643V13.0865C4.63183 12.2476 4.67234 11.3698 4.79219 10.0515C5.0724 6.49829 5.90964 5.97839 7.3478 5.97839C10.0233 5.97839 11.4209 7.73559 11.4209 10.1308C11.4209 12.6864 9.38351 14.0841 6.62872 14.0841C5.63112 14.0841 5.0724 14.0453 4.63183 13.9643ZM7.54698 27.382C6.38903 27.382 5.8303 26.982 5.47076 22.6304C5.35091 21.1922 5.27158 20.1946 5.27158 19.435C5.27158 18.797 5.31209 18.3564 5.39143 17.9968C6.11051 17.9175 6.66923 17.8365 7.62801 17.8365C11.1829 17.8365 13.5782 19.8739 13.5782 22.708C13.5782 25.7447 11.2217 27.382 7.54698 27.382Z" fill="black"/>
<path d="M69.761 9.7038C64.9992 9.7038 61.9642 12.808 61.9642 18.4881C61.9642 24.0972 64.8574 27.7669 69.5483 27.7669C74.4519 27.7669 77.5207 23.9926 77.5207 18.0998C77.5224 12.6679 74.5228 9.7038 69.761 9.7038ZM71.9757 14.7137C71.9757 14.7137 73.5016 14.3576 73.6012 15.9949C73.6383 16.6127 73.4206 17.5209 72.5513 18.1319C72.5513 18.1319 70.6118 19.0654 70.6405 16.6144C70.6405 16.6144 70.8059 15.0969 71.9757 14.7137ZM67.9059 14.1567C67.9059 14.1567 68.9643 12.9177 69.8623 14.1922C70.2016 14.6732 70.4767 15.5527 70.0767 16.5908C70.0767 16.5908 68.9694 18.559 67.7726 16.5384C67.7709 16.5401 67.1497 15.1965 67.9059 14.1567ZM65.06 17.0989C65.0414 15.7586 66.3429 15.9206 66.3429 15.9206C67.3472 16.135 67.5819 17.3571 67.5819 17.3571C67.7608 19.3489 66.0745 18.7514 66.0745 18.7514C65.3081 18.326 65.0684 17.6053 65.06 17.0989ZM71.9926 23.4153C70.9882 24.6323 69.967 23.7546 69.9011 23.6921C69.5146 23.3208 69.4353 22.3232 67.5616 23.022C67.3658 23.0946 66.5387 23.2651 66.1589 21.9991C66.1589 21.9991 65.4719 20.122 68.0309 18.7548C70.4818 17.4449 71.7292 19.6713 71.7934 19.803C71.8524 19.9144 72.9058 22.3097 71.9926 23.4153ZM73.9861 20.6841C73.9861 20.6841 72.3116 21.2513 72.5006 19.3034C72.5006 19.3034 72.7403 18.11 73.7379 17.9108C73.7379 17.9108 75.0292 17.7656 75.0022 19.0772C74.9921 19.5734 74.749 20.2773 73.9861 20.6841Z" fill="black"/>
<path d="M76.8254 33.5651C75.7045 32.1185 76.4878 31.8518 72.2357 30.1469C67.9837 28.4421 53.1092 30.4187 53.1092 30.4187L43.5315 31.0382C43.3897 31.0382 42.4158 31.1074 42.2588 31.1209L42.0512 31.1344L42.0495 31.1361C40.7447 31.2239 38.6617 31.1023 37.9612 30.7799C35.6925 29.7401 34.6004 28.1686 34.4974 25.5843C34.3742 22.4818 35.6284 17.1765 38.0827 15.978C38.844 15.6066 40.7818 14.9416 41.8402 15.4699C42.0157 15.5408 42.193 15.6117 42.3348 15.6117C43.1112 15.6117 43.5349 14.4115 43.5349 13.1067C43.5349 11.6956 43.0403 10.1072 41.982 9.68519C41.0299 9.26151 39.9598 8.93404 38.9487 9.08595C32.6255 10.0312 29.4537 18.1572 29.4537 25.0003C29.4537 30.6432 32.4854 34.6944 36.9062 35.4388L37.605 35.5147C39.9446 35.6059 50.3814 34.6944 50.3814 34.6944C50.3814 34.6944 70.1713 31.6695 72.2729 34.6032C74.3744 37.5369 68.4141 36.6373 68.4141 36.6373C65.4416 37.6551 68.4091 39.5271 68.4091 39.5271C68.4091 39.5271 71.4474 40.8471 74.9264 39.0764C78.4036 37.3057 76.8254 33.5651 76.8254 33.5651Z" fill="black"/>
</g>
<defs>
<clipPath id="clip0_844_30989">
<rect width="92.3446" height="40" fill="white"/>
</clipPath>
</defs>
</svg>
